<?xml version="1.0" encoding="UTF-8" standalone="no"?>
<!-- Created with Inkscape (http://www.inkscape.org/) -->

<svg
   width="210mm"
   height="297mm"
   viewBox="0 0 210 297"
   version="1.1"
   id="svg7684"
   inkscape:version="1.2.2 (732a01da63, 2022-12-09)"
   sodipodi:docname="dibujo 4.svg"
   xmlns:inkscape="http://www.inkscape.org/namespaces/inkscape"
   xmlns:sodipodi="http://sodipodi.sourceforge.net/DTD/sodipodi-0.dtd"
   xmlns="http://www.w3.org/2000/svg"
   xmlns:svg="http://www.w3.org/2000/svg">
  <sodipodi:namedview
     id="namedview7686"
     pagecolor="#ffffff"
     bordercolor="#000000"
     borderopacity="0.25"
     inkscape:showpageshadow="2"
     inkscape:pageopacity="0.0"
     inkscape:pagecheckerboard="0"
     inkscape:deskcolor="#d1d1d1"
     inkscape:document-units="mm"
     showgrid="false"
     inkscape:zoom="0.60845258"
     inkscape:cx="396.08674"
     inkscape:cy="825.04375"
     inkscape:window-width="1600"
     inkscape:window-height="837"
     inkscape:window-x="-8"
     inkscape:window-y="-8"
     inkscape:window-maximized="1"
     inkscape:current-layer="layer1" />
  <defs
     id="defs7681" />
  <g
     inkscape:label="Capa 1"
     inkscape:groupmode="layer"
     id="layer1">
    <g
       id="g7285"
       transform="matrix(4.5651183,0,0,4.4744271,-85.878201,-250.88294)">
      <path
         style="opacity:1;fill:none;fill-opacity:1;fill-rule:evenodd;stroke:#000000;stroke-width:0.4;stroke-opacity:1;paint-order:stroke fill markers"
         d="m 29.569545,83.164346 c 0,0 6.413984,-8.805635 12.175696,-7.718521 5.761712,1.087115 10.110176,4.582129 10.110176,7.609811 0,3.02768 2.717789,3.02768 2.717789,3.02768"
         id="path6695" />
      <path
         style="opacity:1;fill:none;fill-opacity:1;fill-rule:evenodd;stroke:#000000;stroke-width:0.4;stroke-opacity:1;paint-order:stroke fill markers"
         d="m 51.855417,83.055636 c 0,0 4.184205,-9.67686 12.827963,-2.338064"
         id="path6699" />
      <path
         style="opacity:1;fill:none;fill-opacity:1;fill-rule:evenodd;stroke:#000000;stroke-width:0.4;stroke-opacity:1;paint-order:stroke fill markers"
         d="m 55.877745,92.296119 c 4.457173,12.610541 -0.760981,1.087115 4.457173,12.610541"
         id="path6701" />
      <path
         style="opacity:1;fill:none;fill-opacity:1;fill-rule:evenodd;stroke:#000000;stroke-width:0.4;stroke-opacity:1;paint-order:stroke fill markers"
         d="m 43.702049,104.98916 c 0,0 10.871155,1.76559 16.632869,-0.0825"
         id="path6703" />
      <path
         style="opacity:1;fill:none;fill-opacity:1;fill-rule:evenodd;stroke:#000000;stroke-width:0.4;stroke-opacity:1;paint-order:stroke fill markers"
         d="m 43.669987,75.989383 c 0,0 1.771446,-8.044656 6.337334,-8.37079 4.565885,-0.326136 4.565885,11.84956 4.565885,11.84956"
         id="path6707" />
      <path
         style="opacity:1;fill:none;fill-opacity:1;fill-rule:evenodd;stroke:#000000;stroke-width:0.4;stroke-opacity:1;paint-order:stroke fill markers"
         d="m 55.877745,92.296119 c 0,0 9.457902,3.259815 8.805635,-11.578547"
         id="path6709" />
      <path
         style="opacity:1;fill:none;fill-opacity:1;fill-rule:evenodd;stroke:#000000;stroke-width:0.4;stroke-opacity:1;paint-order:stroke fill markers"
         d="m 24.677525,95.774887 c 0,0 -3.696193,-6.740115 3.913617,-5.870424 0,0 7.06625,-1.344234 0.978403,-6.740117 0,0 -5.653001,0.217425 -3.478769,4.239753 0,0 1.521963,1.998188 2.500366,-1.120783"
         id="path6711" />
      <path
         style="opacity:1;fill:none;fill-opacity:1;fill-rule:evenodd;stroke:#000000;stroke-width:0.4;stroke-opacity:1;paint-order:stroke fill markers"
         d="m 24.335247,90.851677 c 0,0 -0.744837,-5.947942 1.755529,-3.447579"
         id="path6713" />
      <path
         style="opacity:1;fill:none;fill-opacity:1;fill-rule:evenodd;stroke:#000000;stroke-width:0.4;stroke-opacity:1;paint-order:stroke fill markers"
         d="m 24.677525,95.774885 0.454011,3.804909 c 0,0 -1.936128,7.606316 12.482665,6.371366 14.418794,-1.23494 9.566619,-13.614335 8.26208,-15.074634"
         id="path6715" />
      <path
         style="opacity:1;fill:none;fill-opacity:1;fill-rule:evenodd;stroke:#000000;stroke-width:0.4;stroke-opacity:1;paint-order:stroke fill markers"
         d="m 58.103142,99.688506 c 0,0 -10.187979,1.956804 -10.187979,0"
         id="path6717" />
      <path
         style="opacity:1;fill:none;fill-opacity:1;fill-rule:evenodd;stroke:#000000;stroke-width:0.4;stroke-opacity:1;paint-order:stroke fill markers"
         d="m 24.677525,95.774885 c 0,0 3.750988,-7.132934 10.001465,3.71721"
         id="path6719" />
      <path
         style="opacity:1;fill:none;fill-opacity:1;fill-rule:evenodd;stroke:#000000;stroke-width:0.4;stroke-opacity:1;paint-order:stroke fill markers"
         d="m 34.67899,99.492092 4.348461,0.09984"
         id="path6721" />
      <path
         style="opacity:1;fill:none;fill-opacity:1;fill-rule:evenodd;stroke:#000000;stroke-width:0.4;stroke-opacity:1;paint-order:stroke fill markers"
         d="m 45.959402,70.464899 c 0,0 3.430297,5.247118 7.856612,2.0701"
         id="path6723" />
      <path
         style="opacity:1;fill:none;fill-opacity:1;fill-rule:evenodd;stroke:#000000;stroke-width:0.4;stroke-opacity:1;paint-order:stroke fill markers"
         d="m 53.074458,70.18716 c 0,0 -3.990104,3.845415 -5.159295,-1.481452"
         id="path6727" />
      <path
         style="opacity:1;fill:none;fill-opacity:1;fill-rule:evenodd;stroke:#000000;stroke-width:0.4;stroke-opacity:1;paint-order:stroke fill markers"
         d="m 61.10108,78.476418 c 0,0 -1.323813,6.94294 2.977341,8.941374"
         id="path6792" />
      <path
         style="opacity:1;fill:none;fill-opacity:1;fill-rule:evenodd;stroke:#000000;stroke-width:0.4;stroke-opacity:1;paint-order:stroke fill markers"
         d="m 32.241397,95.871053 c 0,0 -2.454428,-0.640535 -0.932466,4.887437"
         id="path6794" />
      <path
         style="opacity:1;fill:none;fill-opacity:1;fill-rule:evenodd;stroke:#000000;stroke-width:0.4;stroke-opacity:1;paint-order:stroke fill markers"
         d="m 25.131536,99.579794 v 0 l 1.100661,-1.064919 1.163118,1.077053 0.515409,-0.610047 3.398207,1.776609"
         id="path6796" />
      <path
         style="opacity:1;fill:none;fill-opacity:1;fill-rule:evenodd;stroke:#000000;stroke-width:0.4;stroke-opacity:1;paint-order:stroke fill markers"
         d="M 26.232197,98.514875 V 95.871053"
         id="path6798" />
      <path
         style="opacity:1;fill:none;fill-opacity:1;fill-rule:evenodd;stroke:#000000;stroke-width:0.4;stroke-opacity:1;paint-order:stroke fill markers"
         d="m 27.910724,98.981881 c 0,0 -0.549916,-2.895095 0.286305,-4.131041"
         id="path6800" />
      <path
         style="opacity:1;fill:none;fill-opacity:1;fill-rule:evenodd;stroke:#000000;stroke-width:0.404958;stroke-opacity:1;paint-order:stroke fill markers"
         id="path6802"
         sodipodi:type="arc"
         sodipodi:cx="41.129505"
         sodipodi:cy="86.41983"
         sodipodi:rx="4.7299476"
         sodipodi:ry="6.3091078"
         sodipodi:start="0"
         sodipodi:end="6.235357"
         sodipodi:open="true"
         sodipodi:arc-type="arc"
         d="m 45.859453,86.41983 a 4.7299476,6.3091078 0 0 1 -4.673393,6.308657 4.7299476,6.3091078 0 0 1 -4.78515,-6.157794 4.7299476,6.3091078 0 0 1 4.558963,-6.455912 4.7299476,6.3091078 0 0 1 4.894171,6.00341" />
      <path
         style="opacity:1;fill:none;fill-opacity:1;fill-rule:evenodd;stroke:#000000;stroke-width:0.4;stroke-opacity:1;paint-order:stroke fill markers"
         id="path6804"
         sodipodi:type="arc"
         sodipodi:cx="33.841591"
         sodipodi:cy="82.675148"
         sodipodi:rx="1.0106989"
         sodipodi:ry="1.0871156"
         sodipodi:start="0"
         sodipodi:end="6.235357"
         sodipodi:open="true"
         sodipodi:arc-type="arc"
         d="m 34.85229,82.675148 a 1.0106989,1.0871156 0 0 1 -0.998614,1.087038 1.0106989,1.0871156 0 0 1 -1.022495,-1.061043 1.0106989,1.0871156 0 0 1 0.974163,-1.112411 1.0106989,1.0871156 0 0 1 1.04579,1.034441" />
      <path
         style="opacity:1;fill:none;fill-opacity:1;fill-rule:evenodd;stroke:#000000;stroke-width:0.4;stroke-opacity:1;paint-order:stroke fill markers"
         id="path6806"
         sodipodi:type="arc"
         sodipodi:cx="34.104656"
         sodipodi:cy="89.535713"
         sodipodi:rx="0.94763106"
         sodipodi:ry="1.2075679"
         sodipodi:start="0"
         sodipodi:end="6.235357"
         sodipodi:open="true"
         sodipodi:arc-type="arc"
         d="m 35.052287,89.535713 a 0.94763106,1.2075679 0 0 1 -0.9363,1.207482 0.94763106,1.2075679 0 0 1 -0.958691,-1.178607 0.94763106,1.2075679 0 0 1 0.913375,-1.235666 0.94763106,1.2075679 0 0 1 0.980533,1.149057" />
      <path
         style="opacity:1;fill:none;fill-opacity:1;fill-rule:evenodd;stroke:#000000;stroke-width:0.4;stroke-opacity:1;paint-order:stroke fill markers"
         id="path6808"
         sodipodi:type="arc"
         sodipodi:cx="39.679501"
         sodipodi:cy="77.728767"
         sodipodi:rx="1.249962"
         sodipodi:ry="1.0871156"
         sodipodi:start="0"
         sodipodi:end="6.235357"
         sodipodi:open="true"
         sodipodi:arc-type="arc"
         d="m 40.929463,77.728767 a 1.249962,1.0871156 0 0 1 -1.235017,1.087038 1.249962,1.0871156 0 0 1 -1.26455,-1.061043 1.249962,1.0871156 0 0 1 1.204777,-1.112411 1.249962,1.0871156 0 0 1 1.29336,1.034441" />
      <path
         style="opacity:1;fill:none;fill-opacity:1;fill-rule:evenodd;stroke:#000000;stroke-width:0.4;stroke-opacity:1;paint-order:stroke fill markers"
         id="path6810"
         sodipodi:type="arc"
         sodipodi:cx="46.6078"
         sodipodi:cy="80.582443"
         sodipodi:rx="1.1120114"
         sodipodi:ry="1.1142944"
         sodipodi:start="0"
         sodipodi:end="6.235357"
         sodipodi:open="true"
         sodipodi:arc-type="arc"
         d="m 47.719811,80.582443 a 1.1120114,1.1142944 0 0 1 -1.098715,1.114215 1.1120114,1.1142944 0 0 1 -1.12499,-1.08757 1.1120114,1.1142944 0 0 1 1.071813,-1.140222 1.1120114,1.1142944 0 0 1 1.15062,1.060303" />
      <path
         style="opacity:1;fill:none;fill-opacity:1;fill-rule:evenodd;stroke:#000000;stroke-width:0.4;stroke-opacity:1;paint-order:stroke fill markers"
         id="path6812"
         sodipodi:type="arc"
         sodipodi:cx="50.054829"
         sodipodi:cy="86.678177"
         sodipodi:rx="0.93089408"
         sodipodi:ry="0.92099351"
         sodipodi:start="0"
         sodipodi:end="6.235357"
         sodipodi:open="true"
         sodipodi:arc-type="arc"
         d="m 50.985723,86.678177 a 0.93089408,0.92099351 0 0 1 -0.919764,0.920928 0.93089408,0.92099351 0 0 1 -0.941758,-0.898905 0.93089408,0.92099351 0 0 1 0.897242,-0.942424 0.93089408,0.92099351 0 0 1 0.963215,0.876368" />
      <path
         style="opacity:1;fill:none;fill-opacity:1;fill-rule:evenodd;stroke:#000000;stroke-width:0.4;stroke-opacity:1;paint-order:stroke fill markers"
         id="path6814"
         sodipodi:type="arc"
         sodipodi:cx="52.363083"
         sodipodi:cy="95.207298"
         sodipodi:rx="1.1773617"
         sodipodi:ry="1.2261508"
         sodipodi:start="0"
         sodipodi:end="6.235357"
         sodipodi:open="true"
         sodipodi:arc-type="arc"
         d="m 53.540445,95.207298 a 1.1773617,1.2261508 0 0 1 -1.163285,1.226063 1.1773617,1.2261508 0 0 1 -1.191102,-1.196743 1.1773617,1.2261508 0 0 1 1.134801,-1.254682 1.1773617,1.2261508 0 0 1 1.218239,1.16674" />
      <path
         style="opacity:1;fill:none;fill-opacity:1;fill-rule:evenodd;stroke:#000000;stroke-width:0.4;stroke-opacity:1;paint-order:stroke fill markers"
         id="path6816"
         sodipodi:type="arc"
         sodipodi:cx="57.834549"
         sodipodi:cy="86.842667"
         sodipodi:rx="1.0871156"
         sodipodi:ry="1.2854837"
         sodipodi:start="0"
         sodipodi:end="6.235357"
         sodipodi:open="true"
         sodipodi:arc-type="arc"
         d="m 58.921665,86.842667 a 1.0871156,1.2854837 0 0 1 -1.074118,1.285391 1.0871156,1.2854837 0 0 1 -1.099803,-1.254653 1.0871156,1.2854837 0 0 1 1.047817,-1.315395 1.0871156,1.2854837 0 0 1 1.12486,1.223198" />
      <path
         style="opacity:1;fill:none;fill-opacity:1;fill-rule:evenodd;stroke:#000000;stroke-width:0.4;stroke-opacity:1;paint-order:stroke fill markers"
         d="m 62.435776,79.268142 c 0,0 -0.917927,5.309454 2.377046,5.255098"
         id="path6818" />
      <path
         style="opacity:1;fill:none;fill-opacity:1;fill-rule:evenodd;stroke:#000000;stroke-width:0.4;stroke-opacity:1;paint-order:stroke fill markers"
         id="path6820"
         sodipodi:type="arc"
         sodipodi:cx="40.381363"
         sodipodi:cy="88.095863"
         sodipodi:rx="3.0932996"
         sodipodi:ry="4.1336021"
         sodipodi:start="0"
         sodipodi:end="6.235357"
         sodipodi:open="true"
         sodipodi:arc-type="arc"
         d="m 43.474663,88.095863 a 3.0932996,4.1336021 0 0 1 -3.056314,4.133307 3.0932996,4.1336021 0 0 1 -3.129401,-4.034464 3.0932996,4.1336021 0 0 1 2.981478,-4.229786 3.0932996,4.1336021 0 0 1 3.200699,3.933316" />
      <path
         style="opacity:1;fill:none;fill-opacity:1;fill-rule:evenodd;stroke:#000000;stroke-width:0.4;stroke-opacity:1;paint-order:stroke fill markers"
         id="path6822"
         sodipodi:type="arc"
         sodipodi:cx="40.494946"
         sodipodi:cy="88.551445"
         sodipodi:rx="0.81545019"
         sodipodi:ry="0.98427385"
         sodipodi:start="0"
         sodipodi:end="6.235357"
         sodipodi:open="true"
         sodipodi:arc-type="arc"
         d="m 41.310396,88.551445 a 0.81545019,0.98427385 0 0 1 -0.8057,0.984203 0.81545019,0.98427385 0 0 1 -0.824968,-0.960667 0.81545019,0.98427385 0 0 1 0.785973,-1.007177 0.81545019,0.98427385 0 0 1 0.843762,0.936583" />
      <path
         style="opacity:1;fill:#800000;fill-opacity:1;fill-rule:evenodd;stroke:#000000;stroke-width:0.4;stroke-opacity:1;paint-order:stroke fill markers"
         d="m 43.702049,104.98916 v 0 l -1.413251,-0.27294"
         id="path6927" />
      <path
         style="opacity:1;fill:#800000;fill-opacity:1;fill-rule:evenodd;stroke:#000000;stroke-width:0.310585;stroke-opacity:1;paint-order:stroke fill markers"
         d="m 192.18835,398.62341 c -9.91052,-0.57868 -21.74727,-1.76143 -27.11797,-2.70969 l -0.82176,-0.14509 1.23264,-0.6974 c 2.73093,-1.54511 5.02347,-3.28323 7.19231,-5.45296 3.29741,-3.29875 5.3425,-6.56952 6.77227,-10.83108 l 0.69355,-2.0672 0.22582,0.83866 c 1.04889,3.89527 11.28459,4.37987 30.92899,1.46429 2.25983,-0.3354 4.83983,-0.748 5.73333,-0.9169 0.89351,-0.16889 1.64273,-0.28313 1.66495,-0.25387 0.0222,0.0293 0.52889,1.16257 1.12593,2.51847 0.59705,1.3559 2.3606,5.28878 3.91901,8.73974 1.55841,3.45096 2.863,6.4011 2.89909,6.55586 0.18688,0.80134 -8.599,2.35865 -16.26679,2.88332 -2.63618,0.18038 -15.46455,0.23248 -18.18137,0.0738 z"
         id="path6929"
         transform="scale(0.26458333)" />
      <path
         style="opacity:1;fill:#000000;fill-opacity:1;fill-rule:evenodd;stroke:#000000;stroke-width:0.4;stroke-opacity:1;paint-order:stroke fill markers"
         d="m 43.471126,87.898233 c 0.04074,-0.03788 0.160094,-0.07291 0.122211,-0.113646 -0.03788,-0.04073 -0.122211,0.05802 -0.122211,0.113646 0,0.131649 0.09,0.247912 0.122211,0.375558 0.02824,0.1119 0.02661,0.654539 0,0.760981 -0.02803,0.11212 -0.404868,0.378302 -0.38049,0.489202 0.0176,0.08002 0.0832,0.141165 0.124799,0.211748"
         id="path6984" />
      <path
         style="opacity:1;fill:#000000;fill-opacity:1;fill-rule:evenodd;stroke:#000000;stroke-width:0.4;stroke-opacity:1;paint-order:stroke fill markers"
         d="m 45.792,84.577596 c -0.0067,0.157173 0.03843,0.297307 0.08428,0.434848 0.03067,0.09201 0.08524,0.177901 0.108712,0.271778 0.03873,0.154921 0.0039,0.337915 0.05436,0.489204 0.02066,0.06197 0.08805,0.101092 0.108709,0.163065 0.0455,0.136493 0.01699,1.274 0,1.358895 -0.005,0.02514 -0.04625,0.03005 -0.05436,0.05436 -0.01146,0.03438 0.01146,0.07433 0,0.108712 -0.0081,0.02432 -0.04289,0.03144 -0.05435,0.05436 -0.06974,0.13948 -0.0986,0.3059 -0.163068,0.434845 -0.02175,0.04348 0.02175,0.119584 0,0.163068 -0.01146,0.02291 -0.0799,0.0564 -0.05436,0.05436 0.083,-0.0066 0.160004,-0.04615 0.240006,-0.06923"
         id="path6986" />
      <path
         style="opacity:1;fill:#ffff00;fill-opacity:1;fill-rule:evenodd;stroke:#000000;stroke-width:0.310585;stroke-opacity:1;paint-order:stroke fill markers"
         d="m 126.44781,399.97567 c -7.01166,-0.3136 -12.82429,-1.40032 -17.70049,-3.30925 l -1.71351,-0.6708 v -1.90611 -1.90612 h 0.61632 0.61632 v -2.67071 -2.6707 h -0.61632 -0.61632 v -2.36256 -2.36255 h 0.61632 0.61632 v -2.56799 -2.56799 h -0.61632 c -0.5246,0 -0.61632,-0.0784 -0.61632,-0.52691 0,-0.51111 0.13103,-0.45898 4.36559,1.73703 2.40107,1.24517 4.8554,2.52232 5.45408,2.83811 0.969,0.51113 1.11559,0.53893 1.33535,0.25327 0.13577,-0.17649 0.41913,-0.38562 0.62968,-0.46474 0.28075,-0.10549 0.3476,-0.26643 0.25069,-0.60358 -0.42937,-1.49394 -1.20645,-5.22376 -1.46031,-7.00922 -0.69751,-4.90577 -0.0766,-8.30019 1.74247,-9.52614 1.18016,-0.79535 1.66299,-0.64369 2.94333,0.92447 1.85096,2.26707 4.5046,6.0808 6.33808,9.10889 0.94511,1.56092 1.81084,2.81128 1.92383,2.7786 0.11299,-0.0327 0.29789,0.0555 0.41088,0.19596 0.15384,0.19126 2.24944,0.29165 8.34462,0.39973 l 8.13918,0.14432 0.14299,-0.7622 c 0.0787,-0.41921 0.11205,-0.79315 0.0742,-0.83096 -0.0378,-0.0378 -2.74788,-0.12347 -6.02235,-0.19034 -3.27447,-0.0669 -6.87806,-0.1725 -8.00797,-0.23475 l -2.0544,-0.11318 -1.67727,-2.71444 c -6.44624,-10.43238 -12.90504,-16.92972 -18.95948,-19.07264 -0.62689,-0.22188 -1.78693,-0.5257 -2.57787,-0.67515 -0.91354,-0.17263 -1.19454,-0.27851 -0.7704,-0.29029 l 0.66768,-0.0185 v -2.67071 -2.67071 h -0.61632 -0.61632 v -2.36255 -2.36255 h 0.61632 c 0.57554,0 0.61632,-0.0511 0.61632,-0.7726 v -0.77261 l 2.31119,-0.71114 c 4.31267,-1.327 7.77807,-3.4366 9.51011,-5.78941 1.31813,-1.79055 1.79862,-3.20285 1.80583,-5.30778 0.0134,-3.90632 -1.93048,-7.55396 -6.57363,-12.33546 l -2.34215,-2.41194 1.25414,-1.5782 c 3.21343,-4.04377 8.29496,-9.48738 11.88187,-12.72851 10.48886,-9.47774 19.58426,-14.1073 27.76014,-14.12991 5.22,-0.0144 14.02818,2.53042 21.46839,6.20266 10.21097,5.03978 17.10473,11.64374 19.19609,18.38911 0.28133,0.90737 0.51426,2.42368 0.6312,4.10878 0.20146,2.90334 0.53021,4.2661 1.48593,6.15979 1.27769,2.53161 4.26629,4.67584 7.44826,5.3439 2.18429,0.4586 2.19145,0.4567 2.11757,-0.56225 l -0.0632,-0.87131 -1.0587,-0.15133 c -1.57874,-0.22568 -3.20263,-0.90091 -4.54736,-1.89084 -1.9867,-1.46253 -3.13963,-3.62807 -3.57659,-6.71788 l -0.22639,-1.60087 1.27127,-2.21715 c 5.1135,-8.91817 12.00751,-14.58877 19.43992,-15.99009 1.42918,-0.26946 2.51851,-0.32317 4.82482,-0.23786 2.90459,0.10743 3.38676,0.19537 7.26674,1.3253 0.33444,0.0974 0.36747,0.24848 0.25362,1.16004 -0.38068,3.04808 -0.5278,7.80036 -0.32873,10.61872 0.44178,6.25453 1.67943,10.77629 4.07115,14.87392 1.19509,2.0475 4.50516,5.43409 6.32834,6.47466 l 1.25871,0.71839 -0.61245,1.74623 c -2.93839,8.37811 -8.26342,13.80434 -15.46395,15.75785 -1.92164,0.52134 -2.3199,0.55674 -6.16317,0.54782 -3.47717,-0.008 -4.36079,-0.0752 -5.7481,-0.43662 -1.69945,-0.44274 -1.95587,-0.43427 -1.95587,0.0646 0,0.16282 -0.13322,0.29604 -0.29604,0.29604 -0.16282,0 -0.34529,0.0797 -0.4055,0.17712 -0.0602,0.0974 0.76627,2.69086 1.83662,5.76321 2.1785,6.25321 4.43564,13.4036 5.06381,16.04166 0.29727,1.24842 0.37882,2.07415 0.28607,2.89652 -0.0739,0.65553 -0.036,1.39678 0.0881,1.72337 0.11984,0.31519 0.16915,0.62181 0.10959,0.68137 -0.32463,0.32463 -12.10998,2.03311 -18.18729,2.63656 -4.71313,0.46799 -12.32065,0.47665 -14.35866,0.0163 -1.82746,-0.41276 -2.92982,-0.94593 -3.20374,-1.54955 -0.15497,-0.34148 -0.38155,-0.44687 -0.96077,-0.44687 -0.92218,0 -1.00022,-0.23719 -0.64218,-1.95168 1.41459,-6.77365 0.47128,-16.05807 -2.43993,-24.01485 -0.86805,-2.37253 -2.96296,-6.65739 -3.65756,-7.48107 l -0.40023,-0.47461 -0.62473,0.46188 c -0.75486,0.5581 -0.76174,0.64328 -0.11986,1.48483 0.87192,1.14314 2.73842,5.27126 3.68541,8.15095 1.67522,5.09418 2.46406,9.85282 2.45094,14.78522 -0.0198,7.43966 -1.8789,13.20197 -5.94155,18.41567 -2.385,3.06074 -5.79387,5.77267 -10.04195,7.98889 -1.57718,0.82281 -1.97074,0.94757 -2.72207,0.86288 -0.7625,-0.0859 -0.87832,-0.0472 -0.87832,0.29395 0,0.48121 -1.03285,0.9509 -3.96395,1.80262 -5.85358,1.70094 -11.55223,2.49909 -20.58603,2.88327 -2.7118,0.11532 -5.02299,0.1959 -5.13598,0.17907 -0.11299,-0.0168 -1.77705,-0.1009 -3.69791,-0.18681 z m 73.84155,-35.24998 c 1.80395,-0.89895 2.84644,-2.68246 2.87436,-4.91751 0.0195,-1.56191 -0.84534,-3.44983 -1.97509,-4.31154 -2.78565,-2.12472 -6.63962,-1.14007 -8.10305,2.07025 -0.528,1.15825 -0.50666,3.40618 0.0439,4.62238 1.24225,2.7443 4.45723,3.88322 7.15991,2.53642 z M 158.4318,351.00276 c 2.92812,-0.62058 5.3457,-1.90892 7.72882,-4.11871 2.02063,-1.87367 3.72983,-4.1976 4.97614,-6.76585 0.94987,-1.95741 2.04847,-4.95929 2.04847,-5.59741 0,-0.16094 0.28232,-0.39104 0.62738,-0.51133 0.5487,-0.19127 0.61165,-0.2903 0.50198,-0.78965 -0.0832,-0.37857 0.0459,-0.97792 0.38298,-1.77881 0.62463,-1.48407 0.92213,-4.97545 0.54842,-6.43622 -0.13008,-0.50846 -0.36587,-1.47916 -0.52397,-2.15711 -0.56376,-2.41749 -0.8115,-3.18431 -1.02874,-3.18431 -0.12115,0 -0.47333,-0.90031 -0.78262,-2.0007 -0.64506,-2.29504 -2.15052,-5.57116 -3.4355,-7.47624 -1.07123,-1.58819 -3.40122,-4.04987 -4.8636,-5.13853 -2.71354,-2.02007 -5.81303,-3.0523 -9.1652,-3.0523 -2.4584,0 -4.14866,0.37753 -6.40024,1.4295 -10.11723,4.72698 -15.09311,20.09989 -10.74191,33.18701 3.39853,10.22177 11.72125,16.17228 20.12759,14.39066 z m -27.75704,-7.62533 c 2.35681,-1.19125 3.35191,-5.10877 1.98163,-7.80125 -0.61585,-1.21011 -1.2183,-1.8102 -2.25008,-2.24131 -2.97596,-1.24343 -5.9286,1.31406 -5.90115,5.11142 0.0282,3.89772 3.19945,6.43241 6.1696,4.93114 z m 89.95303,-9.94256 c 1.91028,-0.97455 3.02319,-3.23188 2.84199,-5.76444 -0.25853,-3.61336 -3.15322,-5.85017 -6.33653,-4.89642 -2.59093,0.77626 -4.10626,4.27356 -3.20096,7.38767 0.37531,1.29105 1.47118,2.68222 2.5703,3.26292 1.03428,0.54645 3.0643,0.55151 4.1252,0.0103 z m -30.28867,-1.67196 c 3.70344,-0.93253 4.32306,-6.22316 0.92984,-7.9394 -1.71998,-0.86995 -4.07793,-0.51129 -5.27111,0.80176 -1.08362,1.19249 -1.44511,3.27243 -0.82584,4.75169 0.34976,0.83545 1.79452,2.1521 2.54286,2.31735 0.31358,0.0693 0.66259,0.15674 0.77558,0.19443 0.40531,0.13521 0.96266,0.0973 1.84867,-0.12583 z m -60.75176,-14.67795 c 1.55719,-0.64948 2.90647,-2.47431 2.9164,-3.94429 0.003,-0.49174 -0.0902,-0.67396 -0.35501,-0.69151 -0.3424,-0.0227 -0.3424,-0.0283 0,-0.11778 0.80244,-0.2097 0.13615,-2.31714 -1.10483,-3.49452 -0.90619,-0.85976 -1.98806,-1.29547 -3.20279,-1.2899 -3.98339,0.0183 -6.06426,5.10052 -3.37483,8.24252 1.28017,1.49558 3.37235,2.02485 5.12106,1.29548 z m 48.22025,-7.71449 c 1.08101,-0.29477 2.7929,-2.03391 3.13726,-3.18721 0.60207,-2.01635 0.11341,-3.89048 -1.37818,-5.28568 -2.96064,-2.76934 -7.82057,-1.12771 -8.36231,2.82469 -0.44003,3.21042 1.73603,5.83784 4.857,5.86441 0.50846,0.004 1.29426,-0.093 1.74623,-0.21621 z m -25.86229,-10.96543 c 0.56215,-0.16694 1.39959,-0.62666 1.86097,-1.02158 1.35166,-1.15697 2.25024,-3.5697 1.35165,-3.62926 -0.32226,-0.0214 -0.32025,-0.034 0.0193,-0.12151 0.84297,-0.21734 -0.171,-2.5705 -1.56615,-3.63464 -3.5852,-2.73456 -9.18738,-0.42965 -9.18738,3.77998 0,3.48384 3.70213,5.76126 7.52158,4.62701 z"
         id="path6990"
         transform="scale(0.26458333)" />
      <path
         style="opacity:1;fill:none;fill-opacity:1;fill-rule:evenodd;stroke:#000000;stroke-width:0.4;stroke-opacity:1;paint-order:stroke fill markers"
         d="m 30.607418,89.143482 c 0,0 2.6675,7.489967 8.424624,6.06381 5.757122,-1.426157 6.814722,-3.978973 6.814722,-3.978973"
         id="path7046" />
      <path
         style="opacity:1;fill:#ffffff;fill-opacity:1;fill-rule:evenodd;stroke:#000000;stroke-width:0.310585;stroke-opacity:1;paint-order:stroke fill markers"
         d="m 125.62606,399.86241 c -6.46771,-0.42448 -11.97494,-1.50963 -16.84601,-3.31935 l -1.64352,-0.6106 -0.0591,-1.87453 -0.0591,-1.87454 h 0.62403 0.62403 v -2.67071 -2.6707 h -0.61632 -0.61632 v -2.36256 -2.36255 h 0.61632 0.61632 v -2.54571 c 0,-2.5441 -3.3e-4,-2.5458 -0.5136,-2.67463 -0.43966,-0.11035 -0.74952,-0.53195 -0.39095,-0.53195 0.15908,0 4.88267,2.37632 7.80604,3.92702 1.2535,0.66493 2.45532,1.20588 2.67071,1.20212 0.21538,-0.004 0.61149,-0.18998 0.88024,-0.41383 0.56098,-0.46725 0.58278,-0.21791 -0.41229,-4.71531 -0.58765,-2.65596 -0.66091,-3.34632 -0.67588,-6.36862 -0.0161,-3.24638 0.006,-3.43832 0.5218,-4.53826 0.72864,-1.55377 1.78507,-2.30464 2.77015,-1.96891 0.79624,0.27136 4.39975,5.20632 8.38588,11.48437 0.76444,1.20397 1.16717,1.64 1.66713,1.805 0.98459,0.32495 16.38419,0.63586 16.57787,0.33471 0.083,-0.12908 0.15235,-0.52584 0.15407,-0.88169 l 0.003,-0.64699 -2.51663,-0.11919 c -1.38415,-0.0656 -4.82782,-0.17385 -7.65261,-0.24065 -2.82479,-0.0668 -5.32563,-0.16655 -5.55742,-0.22168 -0.23778,-0.0566 -0.72155,-0.60978 -1.11011,-1.26947 -1.17295,-1.99149 -4.00146,-6.21568 -5.46,-8.15418 -5.48298,-7.28722 -11.06418,-11.73257 -16.12036,-12.83965 l -1.12991,-0.2474 0.0625,-2.7526 0.0625,-2.7526 h -0.62743 -0.62744 v -2.36255 -2.36255 h 0.61632 c 0.56456,0 0.61632,-0.0589 0.61632,-0.70205 v -0.70205 l 2.31119,-0.77008 c 1.27115,-0.42355 2.79918,-0.98588 3.3956,-1.24962 0.59643,-0.26375 1.12472,-0.47954 1.17397,-0.47954 0.0493,0 0.63886,1.13248 1.31024,2.51663 4.52029,9.31921 10.79911,16.07978 17.52108,18.86539 4.59747,1.9052 9.29059,2.09254 15.03118,0.59999 10.80498,-2.80928 19.91611,-7.83965 23.75967,-13.118 0.50573,-0.69452 0.97899,-1.26276 1.0517,-1.26276 0.21941,0 2.39794,5.14313 3.14385,7.42208 0.80574,2.46177 1.63302,6.04834 2.00789,8.70489 0.38845,2.75283 0.32494,8.99596 -0.11702,11.5046 -1.00871,5.7255 -3.58695,10.76885 -7.51292,14.69619 -3.1753,3.17641 -8.63161,6.56676 -10.56832,6.56676 -0.71717,0 -0.94187,0.0841 -1.03849,0.38848 -0.15526,0.4892 -1.49101,1.06722 -4.26867,1.84717 -4.42587,1.24276 -8.06379,1.87168 -13.86603,2.39712 -3.33424,0.30195 -13.4672,0.54015 -15.97531,0.37554 z"
         id="path7048"
         transform="scale(0.26458333)" />
      <path
         style="opacity:1;fill:#ffffff;fill-opacity:1;fill-rule:evenodd;stroke:#000000;stroke-width:0.310585;stroke-opacity:1;paint-order:stroke fill markers"
         d="m 122.13359,399.44911 c -3.77603,-0.40981 -8.22554,-1.35028 -11.53913,-2.43898 -1.56288,-0.5135 -2.94708,-1.00066 -3.07599,-1.08259 -0.13613,-0.0865 -0.26532,-0.90258 -0.30816,-1.94658 l -0.0738,-1.79763 0.56496,3e-5 0.56496,3e-5 v -2.67071 -2.6707 h -0.61632 -0.61632 v -2.36256 -2.36255 h 0.61632 0.61632 v -2.56799 c 0,-1.41239 0.0526,-2.56799 0.11687,-2.56799 0.0643,0 2.08354,1.01693 4.48724,2.25984 4.51187,2.333 5.30922,2.58574 5.94416,1.88413 0.47076,-0.52018 0.43314,-1.06385 -0.29753,-4.29955 -0.51766,-2.29244 -0.65823,-3.44972 -0.74761,-6.15498 -0.12125,-3.66999 0.0191,-4.5532 0.93713,-5.89813 0.3029,-0.44376 0.84879,-0.92839 1.21307,-1.07697 0.62579,-0.25524 0.70257,-0.23482 1.39136,0.36994 0.99721,0.87557 3.03031,3.62691 6.23612,8.4392 1.4836,2.22706 2.88519,4.14967 3.11464,4.27247 0.51185,0.27393 14.66946,0.74147 16.07303,0.53079 0.97066,-0.14569 0.97584,-0.15069 0.97584,-0.94086 v -0.79439 l -1.07856,-0.11702 c -0.5932,-0.0644 -4.1089,-0.20589 -7.81265,-0.31451 -3.70376,-0.10861 -6.82391,-0.25298 -6.93367,-0.32081 -0.10976,-0.0678 -1.36208,-1.89045 -2.78293,-4.05025 -3.63635,-5.52751 -5.29756,-7.63637 -8.71075,-11.05807 -3.98544,-3.99538 -6.70614,-5.80086 -10.3192,-6.84795 l -1.70384,-0.49378 0.0106,-2.69161 0.0106,-2.69161 h -0.67824 -0.67824 v -2.36255 -2.36255 h 0.61632 c 0.54926,0 0.61632,-0.0678 0.61632,-0.62276 0,-0.34252 0.11556,-0.66164 0.2568,-0.70915 0.14124,-0.0475 1.55106,-0.56059 3.13294,-1.14017 1.58189,-0.57957 3.01482,-1.09595 3.18431,-1.14751 0.222,-0.0675 0.66575,0.61203 1.58715,2.43061 5.52367,10.90207 12.32558,17.49435 20.3588,19.73138 2.29476,0.63903 8.12868,0.63589 10.83398,-0.006 10.88296,-2.58153 20.48081,-7.6141 24.85604,-13.0331 l 1.30804,-1.62009 0.54466,1.07485 c 1.12117,2.21251 2.75333,6.77701 3.4481,9.64292 1.1722,4.83531 1.26435,5.63103 1.24732,10.77059 -0.0134,4.04456 -0.0804,5.0279 -0.46544,6.8275 -1.12455,5.25631 -3.67071,10.05779 -7.22172,13.61852 -3.27557,3.28454 -8.91457,6.74948 -11.01836,6.77034 -0.24039,0.002 -0.55777,0.14976 -0.70529,0.32751 -0.9927,1.19613 -7.44334,2.90964 -14.23777,3.78204 -6.33136,0.81293 -17.99925,1.05881 -23.24242,0.48978 z"
         id="path7050"
         transform="scale(0.26458333)" />
      <path
         style="opacity:1;fill:#008080;fill-opacity:1;fill-rule:evenodd;stroke:#000000;stroke-width:0.310585;stroke-opacity:1;paint-order:stroke fill markers"
         d="m 154.18888,349.47064 c -0.3144,-0.12291 -0.20458,-0.18474 0.49471,-0.27853 1.35248,-0.18141 3.76434,-1.47079 5.14881,-2.75257 1.54005,-1.42581 3.05608,-3.67165 3.80944,-5.64327 0.31807,-0.83241 0.65405,-1.60129 0.74662,-1.70863 0.0926,-0.10734 0.16832,-0.37873 0.16832,-0.60308 0,-0.22435 0.19824,-0.61892 0.44052,-0.87682 0.56011,-0.5962 0.81291,-2.16318 0.59805,-3.70695 -0.0913,-0.65562 -0.12327,-1.47464 -0.0711,-1.82004 0.0627,-0.4153 -0.0155,-0.71954 -0.23088,-0.89827 -0.17911,-0.14865 -0.32631,-0.55941 -0.3271,-0.91279 -0.003,-1.22377 -0.83833,-4.12543 -1.72062,-5.975 -1.6389,-3.43566 -3.54266,-5.44778 -6.49551,-6.86519 -1.41246,-0.67801 -1.72133,-0.74589 -3.70836,-0.81499 -1.89869,-0.066 -2.35016,-0.0119 -3.63956,0.43652 -3.72141,1.29418 -6.69842,4.6508 -8.23856,9.28911 -0.84536,2.54589 -1.13294,4.79699 -1.00154,7.83971 0.0602,1.39423 0.082,2.53497 0.0485,2.53497 -0.11724,0 -0.89682,-2.78715 -1.23544,-4.41695 -0.18781,-0.90393 -0.39084,-2.984 -0.45117,-4.62238 -0.1892,-5.13828 0.66888,-9.30182 2.8156,-13.6617 2.64307,-5.36793 6.46943,-8.77839 11.18055,-9.96528 6.86975,-1.73073 14.01498,2.76032 17.58671,11.05393 1.24781,2.89742 2.25667,7.15269 2.25667,9.51837 0,0.93001 0.0361,1.00029 0.5136,1.00029 0.6827,0 0.72831,0.76268 0.0514,0.85883 -0.43633,0.062 -0.46932,0.18657 -0.58853,2.22276 -0.15701,2.68196 -0.6337,5.03454 -1.55841,7.69118 -0.86101,2.47361 -1.21332,3.18994 -2.68386,5.45692 -2.03796,3.14175 -4.9626,5.64239 -7.96058,6.80651 -2.17145,0.84317 -4.9129,1.21803 -5.94817,0.81334 z"
         id="path7125"
         transform="scale(0.26458333)" />
      <path
         style="opacity:1;fill:#008080;fill-opacity:1;fill-rule:evenodd;stroke:#000000;stroke-width:0.310585;stroke-opacity:1;paint-order:stroke fill markers"
         d="m 148.54222,296.80784 c -0.39014,-0.13035 -1.05098,-0.57863 -1.46852,-0.99617 -1.30269,-1.3027 -1.30105,-2.76624 0.005,-4.07187 2.32301,-2.32301 6.69294,-0.99222 6.69294,2.03823 0,2.23186 -2.78594,3.84609 -5.22901,3.02981 z"
         id="path7127"
         transform="scale(0.26458333)" />
      <path
         style="opacity:1;fill:#008080;fill-opacity:1;fill-rule:evenodd;stroke:#000000;stroke-width:0.310585;stroke-opacity:1;paint-order:stroke fill markers"
         d="m 175.10982,307.72978 c -1.5436,-0.44742 -2.65151,-2.61331 -2.13591,-4.17558 0.30137,-0.91316 1.63231,-2.11456 2.5289,-2.28276 2.17387,-0.40782 4.34339,1.73026 3.93963,3.88252 -0.18726,0.99818 -1.3741,2.32526 -2.31265,2.58593 -0.8823,0.24504 -1.14422,0.24373 -2.01997,-0.0101 z"
         id="path7129"
         transform="scale(0.26458333)" />
      <path
         style="opacity:1;fill:#008080;fill-opacity:1;fill-rule:evenodd;stroke:#000000;stroke-width:0.310585;stroke-opacity:1;paint-order:stroke fill markers"
         d="m 126.84127,315.46801 c -1.34932,-0.5875 -2.18055,-2.39 -1.75586,-3.80752 0.75181,-2.5093 3.30144,-3.19947 4.93719,-1.33646 1.45481,1.65694 0.86437,4.31633 -1.14468,5.15576 -0.82549,0.34492 -1.22268,0.34262 -2.03665,-0.0118 z"
         id="path7131"
         transform="scale(0.26458333)" />
      <path
         style="opacity:1;fill:#008080;fill-opacity:1;fill-rule:evenodd;stroke:#000000;stroke-width:0.310585;stroke-opacity:1;paint-order:stroke fill markers"
         d="m 127.36786,341.27839 c -1.02021,-1.02021 -1.3629,-2.2164 -1.05906,-3.69671 0.34358,-1.67391 1.47496,-2.92292 2.64544,-2.92049 1.08839,0.002 2.32074,1.46516 2.63202,3.12441 0.21699,1.15668 -0.3667,2.86429 -1.24165,3.63251 -1.05191,0.92359 -1.95587,0.88116 -2.97675,-0.13972 z"
         id="path7133"
         transform="scale(0.26458333)" />
      <path
         style="opacity:1;fill:#008080;fill-opacity:1;fill-rule:evenodd;stroke:#000000;stroke-width:0.310585;stroke-opacity:1;paint-order:stroke fill markers"
         d="m 187.44756,329.47296 c -2.29509,-2.10329 0.45217,-5.7038 3.11372,-4.08079 0.62634,0.38195 1.31891,1.51979 1.31891,2.16689 0,0.71116 -0.62116,1.76897 -1.27163,2.16556 -1.07441,0.65505 -2.276,0.55938 -3.161,-0.25166 z"
         id="path7135"
         transform="scale(0.26458333)" />
      <path
         style="opacity:1;fill:#008080;fill-opacity:1;fill-rule:evenodd;stroke:#000000;stroke-width:0.310585;stroke-opacity:1;paint-order:stroke fill markers"
         d="m 196.48643,363.23777 c -2.82238,-1.28186 -2.81598,-5.42978 0.0105,-6.79805 1.84179,-0.89159 3.94491,0.068 4.74595,2.16554 0.64432,1.68713 -0.19626,3.8038 -1.82338,4.59148 -1.08934,0.52734 -1.8392,0.53783 -2.93305,0.041 z"
         id="path7137"
         transform="scale(0.26458333)" />
      <path
         style="opacity:1;fill:#008080;fill-opacity:1;fill-rule:evenodd;stroke:#000000;stroke-width:0.310585;stroke-opacity:1;paint-order:stroke fill markers"
         d="m 217.22904,331.80384 c -2.50607,-1.52816 -2.42938,-5.90648 0.12629,-7.21028 1.00998,-0.51525 1.45394,-0.51525 2.46391,0 1.48493,0.75755 2.33182,2.92456 1.85012,4.73408 -0.62705,2.35554 -2.72216,3.5239 -4.44032,2.4762 z"
         id="path7139"
         transform="scale(0.26458333)" />
      <path
         style="opacity:1;fill:#008080;fill-opacity:1;fill-rule:evenodd;stroke:#000000;stroke-width:0.310585;stroke-opacity:1;paint-order:stroke fill markers"
         d="m 92.580054,340.35547 c -0.318752,-2.65354 -0.07379,-7.31806 0.495479,-9.43497 0.256657,-0.95441 1.129574,-2.01237 1.660393,-2.01237 0.69796,0 1.609196,0.60221 3.290758,2.17479 2.082176,1.94723 2.984576,2.42644 4.590186,2.43756 2.06313,0.0143 3.64477,-1.23841 5.0328,-3.98615 0.3718,-0.73601 1.2331,-2.97844 1.2331,-3.21042 0,-0.17573 -1.50379,-0.51132 -1.63761,-0.36547 -0.0889,0.0969 -0.27646,0.54605 -0.41672,0.99801 -0.44928,1.44783 -1.47025,3.16158 -2.38688,4.0065 -1.18867,1.09568 -2.23502,1.13763 -3.70257,0.14846 -0.819973,-0.55268 -1.15076,-0.97838 -1.852065,-2.38344 -3.454191,-6.92047 0.346103,-11.71872 10.517025,-13.27881 l 2.0468,-0.31395 2.37952,2.42816 c 4.387,4.47668 6.35165,7.96314 6.35165,11.27162 0,4.00316 -3.3097,7.2233 -9.55292,9.29442 l -2.46527,0.81782 -2.45682,-0.18887 c -5.02876,-0.38659 -9.966382,0.51107 -12.419552,2.25788 l -0.578452,0.4119 z"
         id="path7141"
         transform="scale(0.26458333)" />
      <path
         style="opacity:1;fill:#008080;fill-opacity:1;fill-rule:evenodd;stroke:#000000;stroke-width:0.310585;stroke-opacity:1;paint-order:stroke fill markers"
         d="m 240.03122,328.11335 c -4.37474,-3.07226 -7.15217,-8.12818 -8.42262,-15.3322 -0.43251,-2.45256 -0.59361,-8.99958 -0.29864,-12.13688 0.13702,-1.4573 0.27883,-2.67933 0.31513,-2.71563 0.0924,-0.0924 2.59946,1.08157 3.04479,1.4258 0.34085,0.26347 0.35049,0.48687 0.13783,3.19354 -0.3882,4.94077 0.21288,9.47594 1.65692,12.50166 1.18222,2.47712 3.71137,4.61448 5.87598,4.96575 0.38716,0.0628 0.74814,0.18578 0.80219,0.27324 0.22155,0.35847 -1.17717,8.31072 -1.52576,8.67452 -0.0831,0.0867 -0.79675,-0.29566 -1.58582,-0.8498 z"
         id="path7143"
         transform="scale(0.26458333)" />
      <path
         style="opacity:1;fill:#008080;fill-opacity:1;fill-rule:evenodd;stroke:#000000;stroke-width:0.310585;stroke-opacity:1;paint-order:stroke fill markers"
         d="m 189.41492,276.83162 c -4.52207,-1.01606 -9.17148,-4.02922 -12.84133,-8.32213 -0.79018,-0.92434 -1.51409,-1.81725 -1.60869,-1.98424 -0.22487,-0.39697 1.53616,-2.69713 3.71924,-4.85786 l 1.61949,-1.60292 0.45127,1.70564 c 0.2482,0.9381 0.91329,2.64083 1.47797,3.78384 1.20012,2.42926 2.7342,4.06459 4.65901,4.96652 1.04314,0.4888 1.43771,0.55653 3.24208,0.55653 1.47091,0 2.37531,-0.10949 3.18431,-0.3855 1.74752,-0.59621 3.86622,-1.70314 5.41837,-2.83087 0.77677,-0.56436 1.48174,-0.94981 1.5666,-0.85655 0.19617,0.21562 1.31406,3.65857 1.75297,5.39895 0.31847,1.26281 0.31649,1.3394 -0.0416,1.60629 -1.00177,0.74662 -3.03067,1.72915 -4.79298,2.32107 -2.36933,0.79582 -5.57854,1.00187 -7.80669,0.50123 z"
         id="path7145"
         transform="scale(0.26458333)" />
      <path
         style="opacity:1;fill:#ffff00;fill-opacity:1;fill-rule:evenodd;stroke:#000000;stroke-width:0.310585;stroke-opacity:1;paint-order:stroke fill markers"
         d="m 196.21289,309.79688 c -0.37075,-1.44655 -1.83234,-4.34404 -3.07615,-6.09821 -1.3576,-1.91464 -4.39274,-5.08392 -6.48839,-6.77515 -4.96309,-4.0053 -12.34823,-7.92581 -19.07312,-10.12525 -1.67396,-0.54749 -1.68066,-0.0793 0.0768,-5.37025 1.44192,-4.34095 2.83496,-7.62863 4.67027,-11.02214 l 1.36292,-2.52008 0.81218,0.97928 c 4.20351,5.06838 9.55277,8.61852 14.49152,9.6176 2.73244,0.55276 6.31894,0.3481 8.84897,-0.50494 1.07342,-0.36193 2.63032,-1.02962 3.45978,-1.48377 0.82947,-0.45414 1.53631,-0.7956 1.57076,-0.75879 0.11546,0.12334 1.11462,6.20248 1.42916,8.69536 0.37687,2.98686 0.86256,8.87142 1.04014,12.60226 l 0.13048,2.74118 -2.23829,2.29208 c -2.32576,2.38167 -4.04649,4.55867 -5.69946,7.21075 -0.53225,0.85397 -0.98691,1.55267 -1.01035,1.55267 -0.0234,0 -0.16171,-0.46467 -0.30726,-1.0326 z"
         id="path7147"
         transform="scale(0.26458333)" />
      <path
         style="opacity:1;fill:#ffff00;fill-opacity:1;fill-rule:evenodd;stroke:#000000;stroke-width:0.310585;stroke-opacity:1;paint-order:stroke fill markers"
         d="m 188.45433,269.24048 c -2.72795,-0.85298 -4.84183,-3.66616 -6.06723,-8.07437 -0.2824,-1.01589 -0.57829,-1.69394 -0.73963,-1.69487 -0.94318,-0.005 2.05477,-1.71101 4.2113,-2.39584 3.44868,-1.09516 6.1836,-0.77154 8.6167,1.01961 1.64986,1.21456 4.36226,4.89721 4.88303,6.62974 0.27586,0.91776 -5.12198,4.1044 -7.77284,4.58873 -1.51956,0.27764 -2.04944,0.26528 -3.13133,-0.073 z"
         id="path7149"
         transform="scale(0.26458333)" />
      <path
         style="opacity:1;fill:#ffff00;fill-opacity:1;fill-rule:evenodd;stroke:#000000;stroke-width:0.310585;stroke-opacity:1;paint-order:stroke fill markers"
         d="m 242.11007,318.15782 c -2.54302,-0.99707 -4.06312,-2.99221 -5.08314,-6.67165 -0.38436,-1.38645 -0.4399,-2.14194 -0.45103,-6.13496 -0.007,-2.50459 0.0518,-4.6183 0.13054,-4.69713 0.16209,-0.16222 3.46656,2.07422 5.55771,3.76142 l 1.38672,1.11884 -0.001,5.06148 c -8.1e-4,2.78381 -0.0604,5.6855 -0.13243,6.44819 -0.14261,1.50995 -0.22672,1.57654 -1.40691,1.11381 z"
         id="path7151"
         transform="scale(0.26458333)" />
      <path
         style="opacity:1;fill:#000000;fill-opacity:1;fill-rule:evenodd;stroke:#000000;stroke-width:0.310585;stroke-opacity:1;paint-order:stroke fill markers"
         d="m 152.04847,337.20119 c -0.55634,-0.38968 -1.24709,-1.79698 -1.24709,-2.54077 0,-0.96339 0.74107,-2.2323 1.52089,-2.60417 0.68602,-0.32714 0.77382,-0.32714 1.45983,0 0.50281,0.23977 0.85298,0.61916 1.12541,1.21932 0.49512,1.09075 0.49753,1.67374 0.0113,2.74435 -0.44134,0.97187 -1.11185,1.51665 -1.86667,1.51665 -0.28869,0 -0.74037,-0.15092 -1.00372,-0.33538 z"
         id="path7153"
         transform="scale(0.26458333)" />
      <path
         style="opacity:1;fill:#000000;fill-opacity:1;fill-rule:evenodd;stroke:#000000;stroke-width:0.4;stroke-opacity:1;paint-order:stroke fill markers"
         d="m 23.580053,93.274969 1.477963,0.271333"
         id="path7155" />
      <path
         style="opacity:1;fill:#000000;fill-opacity:1;fill-rule:evenodd;stroke:#000000;stroke-width:0.4;stroke-opacity:1;paint-order:stroke fill markers"
         d="m 24.335247,90.851677 2.09695,1.697564"
         id="path7157" />
      <path
         style="opacity:1;fill:#000000;fill-opacity:1;fill-rule:evenodd;stroke:#000000;stroke-width:0.4;stroke-opacity:1;paint-order:stroke fill markers"
         d="m 27.968286,89.629815 0.351034,2.1771"
         id="path7159" />
      <path
         style="opacity:1;fill:#000000;fill-opacity:1;fill-rule:evenodd;stroke:#000000;stroke-width:0.4;stroke-opacity:1;paint-order:stroke fill markers"
         d="m 30.155377,89.650852 -0.20534,2.898389"
         id="path7161" />
      <path
         style="opacity:1;fill:#000000;fill-opacity:1;fill-rule:evenodd;stroke:#000000;stroke-width:0.4;stroke-opacity:1;paint-order:stroke fill markers"
         d="m 31.83922,92.429469 v 0.8455"
         id="path7163" />
      <path
         style="opacity:1;fill:#000000;fill-opacity:1;fill-rule:evenodd;stroke:#000000;stroke-width:0.4;stroke-opacity:1;paint-order:stroke fill markers"
         d="m 33.350385,93.743014 v 0.995749"
         id="path7165" />
      <path
         style="opacity:1;fill:#000000;fill-opacity:1;fill-rule:evenodd;stroke:#000000;stroke-width:0.4;stroke-opacity:1;paint-order:stroke fill markers"
         d="m 36.19143,95.462742 -0.09919,1.236194"
         id="path7167" />
      <path
         style="opacity:1;fill:#000000;fill-opacity:1;fill-rule:evenodd;stroke:#000000;stroke-width:0.4;stroke-opacity:1;paint-order:stroke fill markers"
         d="m 42.358074,94.330847 0.202504,2.384084"
         id="path7169" />
      <path
         style="opacity:1;fill:#000000;fill-opacity:1;fill-rule:evenodd;stroke:#000000;stroke-width:0.4;stroke-opacity:1;paint-order:stroke fill markers"
         d="m 39.425443,95.340047 0.05405,2.32763"
         id="path7171" />
      <path
         style="opacity:1;fill:#000000;fill-opacity:1;fill-rule:evenodd;stroke:#000000;stroke-width:0.4;stroke-opacity:1;paint-order:stroke fill markers"
         d="m 35.448443,95.1813 -0.774044,1.322562"
         id="path7173" />
      <path
         style="opacity:1;fill:#000000;fill-opacity:1;fill-rule:evenodd;stroke:#000000;stroke-width:0.4;stroke-opacity:1;paint-order:stroke fill markers"
         d="m 25.383722,102.53365 1.048475,-1.21447"
         id="path7175" />
      <path
         style="opacity:1;fill:#000000;fill-opacity:1;fill-rule:evenodd;stroke:#000000;stroke-width:0.4;stroke-opacity:1;paint-order:stroke fill markers"
         d="m 26.917488,104.18541 1.401858,-1.83347"
         id="path7177" />
      <path
         style="opacity:1;fill:#000000;fill-opacity:1;fill-rule:evenodd;stroke:#000000;stroke-width:0.4;stroke-opacity:1;paint-order:stroke fill markers"
         d="m 29.261451,105.04226 0.414948,-2.37791"
         id="path7179" />
      <path
         style="opacity:1;fill:#000000;fill-opacity:1;fill-rule:evenodd;stroke:#000000;stroke-width:0.4;stroke-opacity:1;paint-order:stroke fill markers"
         d="m 32.314512,105.68757 -0.275294,-2.4189"
         id="path7181" />
      <path
         style="opacity:1;fill:#000000;fill-opacity:1;fill-rule:evenodd;stroke:#000000;stroke-width:0.4;stroke-opacity:1;paint-order:stroke fill markers"
         d="m 33.455983,105.82689 0.244602,-2.22477"
         id="path7183" />
      <path
         style="opacity:1;fill:#000000;fill-opacity:1;fill-rule:evenodd;stroke:#000000;stroke-width:0.4;stroke-opacity:1;paint-order:stroke fill markers"
         d="m 35.793254,105.82894 0.135919,-2.17246"
         id="path7185" />
      <path
         style="opacity:1;fill:#000000;fill-opacity:1;fill-rule:evenodd;stroke:#000000;stroke-width:0.4;stroke-opacity:1;paint-order:stroke fill markers"
         d="m 39.407943,103.54777 0.271495,2.29366"
         id="path7187" />
      <path
         style="opacity:1;fill:#000000;fill-opacity:1;fill-rule:evenodd;stroke:#000000;stroke-width:0.4;stroke-opacity:1;paint-order:stroke fill markers"
         d="m 41.256039,102.67807 -0.01606,2.388"
         id="path7189" />
      <path
         style="opacity:1;fill:#000000;fill-opacity:1;fill-rule:evenodd;stroke:#000000;stroke-width:0.4;stroke-opacity:1;paint-order:stroke fill markers"
         d="m 42.995423,101.92641 0.78816,2.60285"
         id="path7191" />
      <path
         style="opacity:1;fill:#000000;fill-opacity:1;fill-rule:evenodd;stroke:#000000;stroke-width:0.4;stroke-opacity:1;paint-order:stroke fill markers"
         d="m 44.84352,99.791879 1.054785,2.377451"
         id="path7193" />
      <path
         style="opacity:1;fill:none;fill-opacity:1;fill-rule:evenodd;stroke:#000000;stroke-width:0.4;stroke-opacity:1;paint-order:stroke fill markers"
         d="m 44.660703,92.931423 -0.685705,3.800433 2.01512,-5.196718 -0.276905,4.946374 1.323705,-2.061604 -1.160637,4.398905"
         id="path7195" />
      <path
         style="opacity:1;fill:#800000;fill-opacity:1;fill-rule:evenodd;stroke:#000000;stroke-width:0.4;stroke-opacity:1;paint-order:stroke fill markers"
         d="m 43.192078,85.802969 -2.062573,6.925969"
         id="path7197" />
      <path
         style="opacity:1;fill:#800000;fill-opacity:1;fill-rule:evenodd;stroke:#000000;stroke-width:0.310585;stroke-opacity:1;paint-order:stroke fill markers"
         d="m 157.82859,345.49734 c 0.0524,-0.14124 1.18081,-3.90848 2.50759,-8.37165 1.32679,-4.46316 2.44941,-8.15336 2.49472,-8.20044 0.17533,-0.1822 0.25552,0.14892 0.47399,1.95721 0.26257,2.1733 -0.0209,5.8351 -0.50526,6.52661 -0.16348,0.2334 -0.29724,0.68297 -0.29724,0.99905 0,1.35069 -1.69603,4.48685 -3.4276,6.33803 -0.90428,0.96676 -1.44767,1.2943 -1.2462,0.75119 z"
         id="path7199"
         transform="scale(0.26458333)" />
      <path
         style="opacity:1;fill:#800000;fill-opacity:1;fill-rule:evenodd;stroke:#000000;stroke-width:0.310585;stroke-opacity:1;paint-order:stroke fill markers"
         d="m 111.54905,376.27559 c -6.03888,-3.16432 -5.37897,-2.3686 -5.74628,-6.9289 -0.32715,-4.06177 0.0481,-7.39458 1.07977,-9.58931 l 0.42515,-0.90446 -0.49646,-0.38165 c -0.27305,-0.2099 -0.60988,-0.3837 -0.74852,-0.38621 -0.65504,-0.0119 -1.55004,2.53566 -1.91809,5.45968 -0.27008,2.14571 -0.15841,6.55895 0.22487,8.88667 0.20605,1.25139 0.19271,1.33471 -0.32147,2.00883 l -0.53643,0.7033 -1.73136,-1.57184 -1.73135,-1.57184 v -4.90529 -4.9053 h -0.924476 -0.924476 v 4.88512 4.88511 l -1.295756,1.28424 -1.295755,1.28424 -0.466705,-4.0636 c -0.256687,-2.23498 -0.582938,-5.01824 -0.725002,-6.18503 l -0.258298,-2.12142 0.965163,-1.37435 c 1.505273,-2.14343 3.982815,-4.34878 5.991275,-5.33305 2.08228,-1.02044 3.77184,-1.36939 5.87751,-1.21389 3.55825,0.26276 7.2135,2.19495 11.22552,5.93386 l 1.4257,1.32865 -0.90251,0.49914 c -1.15379,0.63811 -2.15558,1.95616 -2.6148,3.4403 -0.288,0.93077 -0.35832,1.87608 -0.34665,4.66009 0.0125,2.97314 0.0975,3.88605 0.57171,6.1393 0.30639,1.45576 0.52768,2.67622 0.49177,2.71214 -0.0359,0.0359 -2.41824,-1.16762 -5.29405,-2.67453 z"
         id="path7201"
         transform="scale(0.26458333)" />
      <path
         style="opacity:1;fill:none;fill-opacity:1;fill-rule:evenodd;stroke:#000000;stroke-width:0.4;stroke-opacity:1;paint-order:stroke fill markers"
         d="m 25.131536,78.628506 1.426503,5.333759 0.974328,-6.229947 -0.974328,6.229947 -6.879144,-2.574247 6.879144,2.574247 -7.724721,4.165881 7.398879,-4.165881 4.439205,-6.553485 -4.439205,6.553485"
         id="path7205" />
    </g>
  </g>
</svg>
