<?xml version="1.0" encoding="UTF-8" standalone="no"?>
<!-- Created with Inkscape (http://www.inkscape.org/) -->

<svg
   width="210mm"
   height="297mm"
   viewBox="0 0 210 297"
   version="1.1"
   id="svg3061"
   inkscape:version="1.2.2 (732a01da63, 2022-12-09)"
   sodipodi:docname="dibujo 2.svg"
   xmlns:inkscape="http://www.inkscape.org/namespaces/inkscape"
   xmlns:sodipodi="http://sodipodi.sourceforge.net/DTD/sodipodi-0.dtd"
   xmlns="http://www.w3.org/2000/svg"
   xmlns:svg="http://www.w3.org/2000/svg">
  <sodipodi:namedview
     id="namedview3063"
     pagecolor="#ffffff"
     bordercolor="#000000"
     borderopacity="0.25"
     inkscape:showpageshadow="2"
     inkscape:pageopacity="0.0"
     inkscape:pagecheckerboard="0"
     inkscape:deskcolor="#d1d1d1"
     inkscape:document-units="mm"
     showgrid="false"
     inkscape:zoom="0.60845258"
     inkscape:cx="396.08674"
     inkscape:cy="562.0816"
     inkscape:window-width="1600"
     inkscape:window-height="837"
     inkscape:window-x="-8"
     inkscape:window-y="-8"
     inkscape:window-maximized="1"
     inkscape:current-layer="layer1" />
  <defs
     id="defs3058" />
  <g
     inkscape:label="Capa 1"
     inkscape:groupmode="layer"
     id="layer1">
    <g
       id="g3027"
       transform="matrix(8.5813755,0,0,9.0445506,-1194.5521,-425.05102)">
      <path
         style="opacity:1;fill:none;fill-rule:evenodd;stroke:#000000;stroke-width:0.4;stroke-dasharray:none;stroke-opacity:1;paint-order:stroke fill markers"
         d="m 146.78035,52.041453 c 0,0 -8.10563,0.768708 -7.33693,10.454413 0.76871,9.685708 11.39133,7.917682 11.39133,7.917682 0,0 11.90049,0.691836 12.43859,-7.148975 0.53809,-7.840808 1.34203,-12.376179 -15.70244,-11.45373"
         id="path1806" />
      <path
         style="opacity:1;fill:none;fill-rule:evenodd;stroke:#000000;stroke-width:0.4;stroke-dasharray:none;stroke-opacity:1;paint-order:stroke fill markers"
         d="m 143.21009,59.882264 c 0,0 -3.23702,1.306801 3.57026,3.151698"
         id="path1808" />
      <path
         style="opacity:1;fill:none;fill-rule:evenodd;stroke:#000000;stroke-width:0.4;stroke-dasharray:none;stroke-opacity:1;paint-order:stroke fill markers"
         d="m 144.53677,59.696807 c 0,0 -2.0384,0.800423 -1.0192,-1.505699 1.0192,-2.306119 7.08746,-0.230611 4.05333,-0.999318 -3.03413,-0.768707 -0.18086,0.614966 3.26385,-1.460542 3.44472,-2.075511 6.21206,-0.230614 6.21206,-0.230614 0,0 -1.61428,0.768708 0.23061,2.921088 1.8449,2.152377 0.92245,0.461224 0.92245,0.461224 l -0.92245,-0.768707 c 0,0 -2.30612,0.890526 -0.30748,3.001642 1.99864,2.111116 5.53469,-0.433194 4.4585,-0.926134"
         id="path1810" />
      <path
         style="opacity:1;fill:none;fill-rule:evenodd;stroke:#000000;stroke-width:0.4;stroke-dasharray:none;stroke-opacity:1;paint-order:stroke fill markers"
         d="m 157.04681,55.500634 c 0,0 3.73583,-1.764067 4.38163,4.689113 0.64579,6.453177 -7.45646,6.995231 -7.45646,6.995231 0,0 -7.58546,0.384355 -7.98218,-1.07619 -0.39672,-1.460542 -2.95855,1.110837 -2.95855,-1.768025"
         id="path1812" />
      <path
         style="opacity:1;fill:none;fill-rule:evenodd;stroke:#000000;stroke-width:0.4;stroke-dasharray:none;stroke-opacity:1;paint-order:stroke fill markers"
         d="m 146.78035,63.033962 c 0,0 4.8672,-0.796591 4.0544,0.997151 -0.81279,1.79374 -0.75843,-0.804116 -0.75843,-0.804116 l 0.0543,2.597856 c 0,0 -2.22859,-0.337357 -1.73938,-1.467606 0.4892,-1.13025 0.4892,-1.13025 0.4892,-1.13025 l -2.10014,-0.193035"
         id="path1814" />
      <path
         style="opacity:1;fill:none;fill-rule:evenodd;stroke:#000000;stroke-width:0.4;stroke-dasharray:none;stroke-opacity:1;paint-order:stroke fill markers"
         d="m 142.83125,62.141816 c 0,0 -2.14895,2.216769 1.70552,2.2161 3.85447,-7.94e-4 3.85447,-7.94e-4 3.85447,-7.94e-4"
         id="path1816" />
      <path
         style="opacity:1;fill:none;fill-rule:evenodd;stroke:#000000;stroke-width:0.4;stroke-dasharray:none;stroke-opacity:1;paint-order:stroke fill markers"
         d="m 142.83125,62.141816 0.2,2.198947 1.12029,-2.198947 -1.12029,2.198947 1.06593,-2.198947 2.68312,0.892146 c 0,0 0.55937,1.324324 0.0524,1.323954"
         id="path1818" />
      <path
         style="opacity:1;fill:none;fill-rule:evenodd;stroke:#000000;stroke-width:0.4;stroke-dasharray:none;stroke-opacity:1;paint-order:stroke fill markers"
         d="m 145.43874,62.587888 0.28911,1.770028 -2.16364,-1.116626"
         id="path1820" />
      <path
         style="opacity:1;fill:none;fill-rule:evenodd;stroke:#000000;stroke-width:0.4;stroke-dasharray:none;stroke-opacity:1;paint-order:stroke fill markers"
         d="m 146.21706,58.595534 c 0,0 0.73654,1.501979 -1.00402,2.011164"
         id="path1822" />
      <path
         style="opacity:1;fill:none;fill-rule:evenodd;stroke:#000000;stroke-width:0.4;stroke-dasharray:none;stroke-opacity:1;paint-order:stroke fill markers"
         d="m 148.0108,58.507476 c 0,0 1.63067,-2.332485 4.18539,-0.02066 2.55472,2.311828 -5.22013,1.780691 -4.23975,0.02066"
         id="path1824" />
      <path
         style="opacity:1;fill:none;fill-rule:evenodd;stroke:#000000;stroke-width:0.4;stroke-dasharray:none;stroke-opacity:1;paint-order:stroke fill markers"
         d="m 152.91316,59.696807 c 0,0 2.49002,0.156334 1.72904,1.558605"
         id="path1826" />
      <path
         style="opacity:1;fill:none;fill-rule:evenodd;stroke:#000000;stroke-width:0.4;stroke-dasharray:none;stroke-opacity:1;paint-order:stroke fill markers"
         d="m 148.39128,59.696807 c 0,0 -0.17062,1.073055 -1.14524,1.419074"
         id="path1828" />
      <path
         style="opacity:1;fill:none;fill-rule:evenodd;stroke:#000000;stroke-width:0.4;stroke-dasharray:none;stroke-opacity:1;paint-order:stroke fill markers"
         d="m 148.0108,58.507476 c 0,0 5.62226,-0.531397 3.59929,1.481868"
         id="path1830" />
      <path
         style="opacity:1;fill:none;fill-rule:evenodd;stroke:#000000;stroke-width:0.4;stroke-dasharray:none;stroke-opacity:1;paint-order:stroke fill markers"
         d="m 149.26098,58.750408 0.85863,0.914993 2.07658,-1.178587"
         id="path1832" />
      <path
         style="opacity:1;fill:none;fill-rule:evenodd;stroke:#000000;stroke-width:0.4;stroke-dasharray:none;stroke-opacity:1;paint-order:stroke fill markers"
         d="m 148.39128,59.696807 1.72833,-0.03141 c 0,0 1.16238,2.684097 -2.87357,1.45048"
         id="path1834" />
      <path
         style="opacity:1;fill:none;fill-rule:evenodd;stroke:#000000;stroke-width:0.4;stroke-dasharray:none;stroke-opacity:1;paint-order:stroke fill markers"
         d="m 142.83125,69.249268 c 0,0 -2.7564,-0.652269 -2.43026,2.826499 0.32613,3.47877 6.84505,1.521962 6.84505,1.521962 0,0 1.65256,-1.47484 1.14524,-2.857296 -0.50732,-1.382453 -0.49637,4.270547 3.04739,3.509566 3.54376,-0.760982 4.55421,-0.870921 3.54376,-3.967972"
         id="path1836" />
      <path
         style="opacity:1;fill:none;fill-rule:evenodd;stroke:#000000;stroke-width:0.4;stroke-dasharray:none;stroke-opacity:1;paint-order:stroke fill markers"
         d="m 160.62134,71.759407 c 0,0 -2.67593,3.575547 -2.71779,-1.018974 -0.0419,-4.594521 7.25071,1.0092 3.76124,2.80294 -3.48946,1.793743 -6.68236,-0.489201 -6.68236,-0.489201"
         id="path1840" />
      <path
         style="opacity:1;fill:none;fill-rule:evenodd;stroke:#000000;stroke-width:0.4;stroke-dasharray:none;stroke-opacity:1;paint-order:stroke fill markers"
         d="m 143.47249,70.740433 c 0,0 -1.98566,2.037951 1.46657,1.018974 3.45222,-1.018974 1.05024,-1.531736 1.05024,-1.531736"
         id="path1842" />
      <path
         style="opacity:1;fill:none;fill-rule:evenodd;stroke:#000000;stroke-width:0.4;stroke-dasharray:none;stroke-opacity:1;paint-order:stroke fill markers"
         d="m 150.83475,70.413548 c 0,0 -0.11651,2.318803 0.98095,1.832333 1.09746,-0.486474 1.08493,-1.855142 1.08493,-1.855142"
         id="path1844" />
      <path
         style="opacity:1;fill:none;fill-rule:evenodd;stroke:#000000;stroke-width:0.4;stroke-dasharray:none;stroke-opacity:1;paint-order:stroke fill markers"
         d="m 143.87976,56.31259 c 0,0 4.40282,-3.424414 13.53459,-2.119876 9.13177,1.304539 2.79764,15.244435 -4.31371,14.241217 -7.11134,-1.003221 -10.68849,0.889367 -11.93867,-6.431323 -1.25019,-7.32069 11.08528,-8.027315 11.08528,-8.027315"
         id="path1846" />
    </g>
  </g>
</svg>
