<?xml version="1.0" encoding="UTF-8" standalone="no"?>
<!-- Created with Inkscape (http://www.inkscape.org/) -->

<svg
   width="210mm"
   height="297mm"
   viewBox="0 0 210 297"
   version="1.1"
   id="svg5152"
   inkscape:version="1.2.2 (732a01da63, 2022-12-09)"
   sodipodi:docname="dibujo 3.svg"
   xmlns:inkscape="http://www.inkscape.org/namespaces/inkscape"
   xmlns:sodipodi="http://sodipodi.sourceforge.net/DTD/sodipodi-0.dtd"
   xmlns="http://www.w3.org/2000/svg"
   xmlns:svg="http://www.w3.org/2000/svg">
  <sodipodi:namedview
     id="namedview5154"
     pagecolor="#ffffff"
     bordercolor="#000000"
     borderopacity="0.25"
     inkscape:showpageshadow="2"
     inkscape:pageopacity="0.0"
     inkscape:pagecheckerboard="0"
     inkscape:deskcolor="#d1d1d1"
     inkscape:document-units="mm"
     showgrid="false"
     inkscape:zoom="0.60845258"
     inkscape:cx="396.08674"
     inkscape:cy="693.56268"
     inkscape:window-width="1600"
     inkscape:window-height="837"
     inkscape:window-x="-8"
     inkscape:window-y="-8"
     inkscape:window-maximized="1"
     inkscape:current-layer="layer1" />
  <defs
     id="defs5149" />
  <g
     inkscape:label="Capa 1"
     inkscape:groupmode="layer"
     id="layer1">
    <g
       id="g2716"
       transform="matrix(8.4488933,0,0,8.857923,-890.56399,-666.27375)">
      <path
         style="fill:none;fill-rule:evenodd;stroke:#000000;stroke-width:0.4;paint-order:stroke fill markers"
         d="m 127.37473,100.08563 c -0.57926,-0.78783 -2.46328,0.81101 -2.7341,-0.469383 0.76195,-1.08685 1.93368,-1.97543 3.19047,-2.421439 1.65026,-0.511155 2.44575,1.624829 2.22154,2.918672 -0.53274,1.07047 -1.90622,1.39647 -2.93329,1.87852 -1.16636,0.35841 -2.44669,0.73907 -3.66195,0.44699 -1.65746,-0.68261 -1.44343,-3.578032 0.26654,-4.019764 1.30577,0.04687 2.72123,-0.01209 3.51498,-1.237347 1.70517,-2.134302 2.54899,-4.855913 2.88136,-7.538225 0.33343,-2.799395 -0.3597,-5.927238 -2.6274,-7.782843 -2.5426,-2.210002 -6.20124,-2.831492 -9.42422,-2.066147 -1.05027,0.174788 -2.04906,-0.425536 -3.11455,-0.250686 -1.4324,0.137883 -2.87939,0.300854 -4.27165,0.668509 -2.16302,0.640771 -3.64888,2.569748 -4.32363,4.648882 -0.81898,2.459321 -1.06519,5.124999 -0.77214,7.695901 0.40838,2.73563 2.25182,5.292029 4.92875,6.175681 2.71074,1.03454 5.65507,0.643847 8.47106,0.459731 1.03467,-0.07256 3.93737,-0.251767 3.00169,1.442148 -0.9173,1.00642 -2.28434,1.45065 -3.52758,1.92848 -1.20685,0.4037 -2.62378,0.75181 -3.81703,0.13549 -0.32604,-0.24524 -0.46423,-0.68031 -0.41374,-1.07571"
         id="path1007" />
      <path
         style="fill:none;fill-rule:evenodd;stroke:#000000;stroke-width:0.4;paint-order:stroke fill markers"
         d="m 113.72003,99.390458 c -0.32751,1.670842 -1.58234,3.507672 -3.46114,3.468232 -1.53151,-0.127 -3.47571,-0.77364 -3.9143,-2.42176 -0.16848,-1.290846 0.86143,-2.344867 1.74646,-3.128722"
         id="path1063" />
      <path
         style="fill:none;fill-rule:evenodd;stroke:#000000;stroke-width:0.4;paint-order:stroke fill markers"
         d="m 108.61828,99.624408 c -0.0514,1.458382 1.81033,1.211602 1.94908,-0.04542 0.12538,-0.231553 0.23899,-0.46926 0.34743,-0.709145"
         id="path1065" />
      <path
         style="fill:none;fill-rule:evenodd;stroke:#000000;stroke-width:0.4;paint-order:stroke fill markers"
         d="m 117.81819,81.406054 c -3.15511,-0.953051 -6.55561,0.95863 -8.14149,3.687528 -1.89146,2.937028 -1.81287,7.324246 0.90253,9.741309 2.92032,2.59474 7.42789,3.351576 10.99219,1.714633 3.66338,-1.805111 6.05666,-6.373784 4.64806,-10.354502 -1.21971,-3.278639 -4.97523,-5.355036 -8.40124,-4.712093"
         id="path1136" />
      <path
         style="fill:none;fill-rule:evenodd;stroke:#000000;stroke-width:0.4;paint-order:stroke fill markers"
         d="m 112.05805,82.517849 c 0.21847,2.253527 1.96921,4.595861 4.40088,4.569756 2.22507,0.03455 4.33876,-0.890701 6.2677,-1.910792 0.68619,-0.411069 1.70869,-1.156278 1.20347,-2.078174"
         id="path1138" />
      <path
         style="fill:none;fill-rule:evenodd;stroke:#000000;stroke-width:0.4;paint-order:stroke fill markers"
         d="m 113.91646,81.867279 c -0.51208,1.320492 -0.20295,3.446141 1.51184,3.594976 1.90313,0.244398 3.84815,-0.42989 5.43562,-1.446115 0.57307,-0.40355 1.0862,-0.907567 1.43734,-1.518499"
         id="path1140" />
      <path
         style="fill:none;fill-rule:evenodd;stroke:#000000;stroke-width:0.4;paint-order:stroke fill markers"
         d="m 115.61351,81.804874 c -0.72877,0.838546 -0.79271,2.058205 -0.53809,3.093035"
         id="path1872" />
      <path
         style="fill:none;fill-rule:evenodd;stroke:#000000;stroke-width:0.4;paint-order:stroke fill markers"
         d="m 117.81824,81.482929 c -0.44528,1.097585 -0.32653,2.389194 0.25186,3.41498"
         id="path1874" />
      <path
         style="fill:none;fill-rule:evenodd;stroke:#000000;stroke-width:0.4;paint-order:stroke fill markers"
         d="m 109.55819,85.291984 c -0.21353,1.653816 1.4777,2.728783 2.88504,3.060285 3.4528,0.876058 7.07567,0.526028 10.5523,-0.0079 1.16591,-0.209342 2.44598,-0.489768 3.22845,-1.460225 0.56028,-1.582498 -1.27401,-2.582347 -2.37301,-3.312607 -1.81901,-1.05664 -3.80951,-2.016532 -5.93193,-2.17314 l -0.0692,0.0053 -0.0316,0.0024"
         id="path1876" />
      <path
         style="fill:none;fill-rule:evenodd;stroke:#000000;stroke-width:0.4;paint-order:stroke fill markers"
         d="m 110.64932,87.530336 c -1.60394,0.283956 -1.33229,2.358127 -1.24312,3.570203 0.11588,1.062539 0.3482,2.108222 0.61095,3.142919"
         id="path1878" />
      <path
         style="fill:none;fill-rule:evenodd;stroke:#000000;stroke-width:0.4;paint-order:stroke fill markers"
         d="m 111.09718,95.473389 c 1.42423,-2.450051 4.66669,-3.085503 7.23953,-2.37393 0.58983,0.135743 1.16869,0.316803 1.7353,0.529036"
         id="path1880" />
      <path
         style="fill:none;fill-rule:evenodd;stroke:#000000;stroke-width:0.4;paint-order:stroke fill markers"
         d="m 122.05461,96.291362 c -0.0505,-1.17965 -1.33264,-1.821116 -1.9826,-2.662867"
         id="path1882" />
      <path
         style="fill:none;fill-rule:evenodd;stroke:#000000;stroke-width:0.4;paint-order:stroke fill markers"
         d="m 110.01715,94.243458 c 1.61633,-0.660586 3.50936,-1.364939 4.28549,-3.059366 0.15189,-0.943718 -2.2417,-2.089642 -0.53843,-2.58895 2.03567,-0.459661 4.14158,-0.150483 6.20175,-0.06348 0.36878,0.02978 0.73727,0.06309 1.10537,0.100239"
         id="path2610" />
      <path
         style="fill:none;fill-rule:evenodd;stroke:#000000;stroke-width:0.4;paint-order:stroke fill markers"
         d="m 113.91646,91.297608 c 1.39127,0.70116 3.23643,1.400366 4.64243,0.359625 0.72169,-0.64188 0.87926,-1.669503 0.89815,-2.584607"
         id="path2612" />
      <path
         style="fill:none;fill-rule:evenodd;stroke:#000000;stroke-width:0.4;paint-order:stroke fill markers"
         d="m 114.73967,88.162833 c -0.72598,1.325539 0.6247,2.769241 1.9961,2.64918 0.77855,0.08255 1.56328,0.01424 2.33692,-0.08432"
         id="path2614" />
      <path
         style="fill:none;fill-rule:evenodd;stroke:#000000;stroke-width:0.4;paint-order:stroke fill markers"
         d="m 110.68402,90.809912 c 0.1534,-0.272011 1.02311,-2.518462 1.17505,-1.245372"
         id="path2616" />
      <path
         style="fill:none;fill-rule:evenodd;stroke:#000000;stroke-width:0.4;paint-order:stroke fill markers"
         d="m 121.07133,88.631897 c -1.06748,1.272713 0.48812,2.957871 1.81242,1.905317 0.4812,-0.174126 0.9428,-0.397143 1.39737,-0.630902"
         id="path2618" />
      <path
         style="fill:none;fill-rule:evenodd;stroke:#000000;stroke-width:0.4;paint-order:stroke fill markers"
         d="m 114.42509,93.051893 c 0.36844,1.367711 0.73687,2.735424 1.10531,4.103135"
         id="path2620" />
      <path
         style="fill:none;fill-rule:evenodd;stroke:#000000;stroke-width:0.4;paint-order:stroke fill markers"
         d="m 117.81819,92.999871 c 0.52478,1.420131 1.04955,2.840264 1.57433,4.260395"
         id="path2622" />
      <path
         style="fill:none;fill-rule:evenodd;stroke:#000000;stroke-width:0.4;paint-order:stroke fill markers"
         d="m 121.09235,91.007514 c -1.04608,0.9407 -0.90996,3.054131 0.78065,3.086297 0.88448,0.186979 1.79512,0.114239 2.68797,0.04087"
         id="path2624" />
      <path
         style="fill:none;fill-rule:evenodd;stroke:#000000;stroke-width:0.4;paint-order:stroke fill markers"
         d="m 115.72352,90.727677 c 0.93874,-0.153299 1.40687,-0.980937 1.50633,-1.857812"
         id="path2679" />
      <path
         style="fill:none;fill-rule:evenodd;stroke:#000000;stroke-width:0.4;paint-order:stroke fill markers"
         d="m 122.9931,88.547561 c 1.03402,-0.254613 2.8452,0.105761 1.28797,1.35875"
         id="path2683" />
      <path
         style="fill:none;fill-rule:evenodd;stroke:#000000;stroke-width:0.4;paint-order:stroke fill markers"
         d="m 122.90482,91.007514 c -0.74644,0.956464 1.0403,2.269381 0.99098,0.652543 0.0772,-0.755264 0.31173,-1.767718 1.07301,-0.89192 0.75048,0.740317 0.80498,-0.285133 1.4276,-0.247553"
         id="path2685" />
      <path
         style="fill:none;fill-rule:evenodd;stroke:#000000;stroke-width:0.4;paint-order:stroke fill markers"
         d="m 117.07405,99.316925 c 0.15335,0.177669 0.3215,1.964185 1.51351,1.416255 0.64627,-0.13021 0.93234,-0.787332 0.99261,-1.339326"
         id="path2687" />
      <path
         style="fill:none;fill-rule:evenodd;stroke:#000000;stroke-width:0.4;paint-order:stroke fill markers"
         d="m 113.72003,99.390458 c 0.0268,1.000972 0.86076,2.176532 0.83393,2.959862 -0.0686,-0.26037 -0.22607,-0.47962 -0.32399,-0.72724"
         id="path2689" />
    </g>
  </g>
</svg>
