<?xml version="1.0" encoding="UTF-8" standalone="no"?>
<!-- Created with Inkscape (http://www.inkscape.org/) -->

<svg
   width="210mm"
   height="297mm"
   viewBox="0 0 210 297"
   version="1.1"
   id="svg1048"
   inkscape:version="1.2.2 (732a01da63, 2022-12-09)"
   sodipodi:docname="dibujo 1 lalo.svg"
   xmlns:inkscape="http://www.inkscape.org/namespaces/inkscape"
   xmlns:sodipodi="http://sodipodi.sourceforge.net/DTD/sodipodi-0.dtd"
   xmlns="http://www.w3.org/2000/svg"
   xmlns:svg="http://www.w3.org/2000/svg">
  <sodipodi:namedview
     id="namedview1050"
     pagecolor="#ffffff"
     bordercolor="#000000"
     borderopacity="0.25"
     inkscape:showpageshadow="2"
     inkscape:pageopacity="0.0"
     inkscape:pagecheckerboard="0"
     inkscape:deskcolor="#d1d1d1"
     inkscape:document-units="mm"
     showgrid="false"
     inkscape:zoom="0.86048189"
     inkscape:cx="218.48223"
     inkscape:cy="502.04427"
     inkscape:window-width="1600"
     inkscape:window-height="837"
     inkscape:window-x="-8"
     inkscape:window-y="-8"
     inkscape:window-maximized="1"
     inkscape:current-layer="layer1" />
  <defs
     id="defs1045" />
  <g
     inkscape:label="Capa 1"
     inkscape:groupmode="layer"
     id="layer1">
    <g
       id="g1668"
       transform="matrix(8.3067291,0,0,8.4283262,-1147.9434,-154.3124)">
      <path
         id="path1633"
         style="opacity:1;fill:none;fill-rule:evenodd;stroke:#000000;stroke-width:0.4;stroke-dasharray:none;stroke-opacity:1;paint-order:stroke fill markers"
         d="m 155.10297,26.988926 c 0.51023,-1.925634 2.454,0.13753 3.15443,0.859968 0.59434,1.683503 1.26624,3.511627 0.63744,5.28495 -0.2303,1.77312 -1.22498,3.375132 -2.75108,4.327841 -1.74549,1.364094 -3.98344,0.778934 -6.01325,0.898308 -1.68174,0.103978 -3.63975,-0.1467 -4.76818,-1.538938 m 5.22747,-11.360029 c 0.17828,1.031926 2.86375,0.08158 2.95684,0.521265 m -5.03782,-0.153741 c -1.98898,-0.57681 -3.90392,0.546697 -5.66178,1.334313 -1.89394,0.738255 -2.86016,2.682076 -2.05868,4.655315 -0.15652,1.117255 0.0765,2.55626 0.51973,3.445983 l 0.12554,-0.04162 M 151.81975,28.0578 c 0.43821,0.474875 0.87643,0.949745 1.31464,1.42462 m -4.00517,2.111433 c 0.87121,-1.229931 1.74242,-2.459863 2.61363,-3.689794 m -3.38234,-0.153739 c 0.33312,1.22993 0.66623,2.459862 0.99935,3.689792 m -2.99799,-3.536053 c 0.99933,1.178684 1.99866,2.357369 2.99799,3.536053 m -5.76542,-1.460545 c 0.92248,-0.691834 1.84495,-1.383674 2.76743,-2.075508 m 1.99864,-0.153739 c -1.04507,1.155872 -2.09015,2.311738 -3.13522,3.46761 m 6.59446,-3.16013 c -0.81996,1.127439 -1.63993,2.254873 -2.45989,3.382312 m 4.99666,-2.844218 c -0.81475,0.59102 -1.62951,1.182035 -2.44426,1.773055 m -4.9252,0.159607 c 1.04169,-0.661647 2.19573,-2.538388 3.16929,-2.463189 0.5853,0.767861 1.17061,1.535722 1.75591,2.303583 m -7.54908,-1.926798 c 0.87463,0.695466 1.74925,1.390938 2.62388,2.086404 m -0.76888,1.910874 c 1.17336,1.281762 2.90732,-1.629436 3.31692,-0.480739 m 1.09983,8.148628 c 0.70658,1.239239 -1.63365,3.016451 -1.36965,1.001549 0.39038,-1.097472 -0.23837,-0.630857 -0.67425,-0.213664 m 13.68299,-0.809612 c -3.8797,0.0072 -7.75939,0.01448 -11.63909,0.02172 m -3.35061,0.172928 c 1.7558,-0.239766 1.05756,1.229831 1.2592,2.227073 1.49232,2.009092 3.07598,-0.981862 3.77443,-1.873584 0.21515,0.173365 0.48122,0.240057 0.73149,0.33835 m -6.38014,2.229246 c 0.21833,2.554503 3.19973,2.481344 5.02822,1.838911 0.92494,-0.461513 1.366,-1.666231 1.65945,-2.607578 m 4.44651,0.420715 c -2.43979,0.06927 -1.96141,-3.485607 0.40236,-3.078215 1.93895,-0.177398 2.49426,2.393137 2.05099,3.87925 -0.70785,1.869907 -2.91406,2.025102 -4.62383,1.956786 -2.04026,0.01508 -2.54412,-1.951047 -2.3805,-3.603635 -0.10563,-0.409965 -0.31637,-0.909698 -0.0176,-1.293209 m -8.35796,-0.818421 c 0.22251,1.433245 -1.2663,2.969836 -2.69384,2.28695 0.29644,-0.361795 1.62268,-1.722947 0.18138,-2.210077 -2.23564,-0.568753 -3.27218,2.64995 -2.06814,4.069959 0.51501,2.018826 3.53817,2.273147 4.79607,0.869085 1.47375,-0.975401 2.49101,-2.987117 2.09227,-4.637847 -0.0658,-0.0088 -0.13169,0.0043 -0.19754,0.0063 m 10.53591,-9.188734 c -1.47348,1.071048 -0.3296,-0.415851 0.18898,-0.945364 0.001,0.323012 -0.15621,0.624533 -0.18888,0.945364 m -14.56742,-0.217422 c 0.88797,-1.546061 1.6447,-3.375424 3.83085,-3.088898 2.27379,-0.249956 4.52261,0.213653 6.77132,0.404935 0.69943,0.164006 1.43478,0.708801 1.33679,1.516931 m -8.9173,5.576586 c 1.39679,-1.775544 3.96317,0.696053 4.90075,-1.334333 l 0.18856,-0.285444 0.13808,-0.301984 m -7.37974,2.152371 c 0.69565,-0.270117 1.47271,0.119838 2.15235,-0.230612 m -2.15235,0.691837 c 1.30316,0.692359 3.19073,1.542418 4.45853,0.60329 m 1.11583,-2.278013 c 0.50366,-1.992264 3.42432,-0.780353 2.06434,0.985994 -1.51629,1.593585 -3.39005,-1.338584 -4.40554,0.227979 -0.69348,1.083058 -1.25545,0.724159 -1.14866,-0.503418 -0.67577,-0.597306 -2.5545,-1.038447 -3.52035,-0.478748 -0.0694,0.745671 2.19107,2.387515 1.2633,0.572735 -0.0741,-0.221406 0.38951,-1.062074 -0.20073,-0.765076 m 2.54789,-0.204785 c 0.95231,-0.83377 3.09976,-1.802857 3.39975,0.165319 m 0.1356,-2.342065 c 1.5009,-1.259926 3.74104,-2.804909 5.69012,-1.59361 1.18816,0.915143 1.4537,2.51956 1.64703,3.91318 m -11.64687,-3.06037 c 1.36951,-0.890821 3.56271,-1.010917 4.30969,0.740757 m -6.57927,-1.084604 c -1.72723,-0.693761 -1.09708,-2.889044 0.61171,-3.05191 2.60908,-0.853175 5.3901,-1.037872 8.11375,-1.212027 1.83474,0.01109 4.03872,0.0807 5.3217,1.580529 1.208,1.712831 0.26707,3.838564 -0.006,5.688171 -0.32074,2.406406 -2.80124,3.650209 -5.03824,3.227894 -1.57558,-0.131878 -3.1282,-0.441673 -4.68422,-0.710639 0.9276,0.183909 3.88554,0.448468 1.52557,0.700361 -2.49548,0.410641 -5.75095,0.432433 -7.36594,-1.873915 m 0,0 c -0.93186,-1.393938 -0.7086,-3.726504 1.13057,-4.224285 1.81755,-1.02031 3.78695,0.679964 3.45496,2.638607 -0.77142,0.734006 -3.20625,-1.081576 -4.17269,0.652023 -0.20294,0.277141 -0.33176,0.601799 -0.41284,0.933655 z m -2.10482,-1.203073 c 0.0246,-2.246063 -0.72415,-4.689517 0.57755,-6.725812 0.77256,-1.458493 2.15851,-2.392856 3.33607,-3.493077 4.80264,-0.887157 9.94318,-1.332176 14.61562,0.386544 2.51318,0.964302 4.54461,3.281473 4.67396,6.040155 0.25694,3.112589 -0.41749,6.73723 -3.07984,8.698379 -2.6348,2.015263 -6.18356,1.705363 -9.25355,1.195368 -3.31465,0.02513 -6.93601,-0.0499 -9.7694,-1.983548 -1.25234,-0.979464 -1.6549,-2.645498 -1.10041,-4.118009 z" />
    </g>
  </g>
</svg>
