<?xml version="1.0" encoding="UTF-8" standalone="no"?>
<!-- Created with Inkscape (http://www.inkscape.org/) -->

<svg
   width="210mm"
   height="297mm"
   viewBox="0 0 210 297"
   version="1.1"
   id="svg1"
   xml:space="preserve"
   inkscape:version="1.3.2 (091e20e, 2023-11-25, custom)"
   sodipodi:docname="dibujo 5.3.svg"
   xmlns:inkscape="http://www.inkscape.org/namespaces/inkscape"
   xmlns:sodipodi="http://sodipodi.sourceforge.net/DTD/sodipodi-0.dtd"
   xmlns="http://www.w3.org/2000/svg"
   xmlns:svg="http://www.w3.org/2000/svg"><sodipodi:namedview
     id="namedview1"
     pagecolor="#ffffff"
     bordercolor="#000000"
     borderopacity="0.25"
     inkscape:showpageshadow="2"
     inkscape:pageopacity="0.0"
     inkscape:pagecheckerboard="0"
     inkscape:deskcolor="#d1d1d1"
     inkscape:document-units="mm"
     inkscape:zoom="0.45344416"
     inkscape:cx="-1.1026716"
     inkscape:cy="561.25984"
     inkscape:window-width="1366"
     inkscape:window-height="705"
     inkscape:window-x="-8"
     inkscape:window-y="-8"
     inkscape:window-maximized="1"
     inkscape:current-layer="layer1" /><defs
     id="defs1" /><g
     inkscape:label="Capa 1"
     inkscape:groupmode="layer"
     id="layer1"><path
       style="fill:#000000;fill-opacity:0;stroke:#000000;stroke-width:5.69218;stroke-dasharray:none;stroke-opacity:1"
       d="m 39.945942,129.34143 c -11.197409,-8.04528 -11.197409,-8.04528 -11.197409,-8.04528 l 2.799355,-16.09061 -0.699837,-16.090596 11.197403,-8.715741 13.996758,-8.045301 13.296917,2.681766 9.797737,-5.363535 12.597079,7.374864 -5.5987,14.079273 -6.998379,6.033967 -12.597083,-8.045293 -15.396437,10.72707 -2.799348,12.738386 5.598701,6.03398 9.797731,-6.03398 6.298544,-7.37486 16.796106,-14.749706 h 16.09628 L 133.0244,79.058326"
       id="path1" /><path
       style="fill:#000000;fill-opacity:0;stroke:#000000;stroke-width:5.69218;stroke-dasharray:none;stroke-opacity:1"
       d="m 107.13039,87.103628 c -8.398066,-6.033985 -8.398066,-6.033985 -8.398066,-6.033985 l 7.698206,-8.045301 33.59224,-6.03397 38.49108,1.340881"
       id="path2" /><path
       style="fill:#000000;fill-opacity:0;stroke:#000000;stroke-width:5.69218;stroke-dasharray:none;stroke-opacity:1"
       d="m 51.944122,120.21943 c -14.845807,11.37776 -14.845807,11.37776 -14.845807,11.37776 l -9.402341,26.54813 5.938324,13.74815 17.81496,-4.26667 14.350945,3.31851 6.928041,-3.7926 -1.484575,-10.42961 -9.897209,-6.16295"
       id="path3" /><path
       style="fill:#000000;fill-opacity:0;stroke:#000000;stroke-width:5.69218;stroke-dasharray:none;stroke-opacity:1"
       d="m 50.45954,140.13051 13.361227,-14.69627 4.45374,-7.1111 6.43318,6.16295 19.794402,3.3185 10.392071,4.74076 8.41262,1.42221 1.97945,-5.21481"
       id="path4" /><path
       style="fill:#000000;fill-opacity:0;stroke:#000000;stroke-width:5.69218;stroke-dasharray:none;stroke-opacity:1"
       d="m 76.192271,126.85646 c 0,0 -0.989728,0.94813 -1.484584,6.16297 -0.494858,5.2148 12.866365,9.00737 12.866365,9.00737 l 10.392067,-2.84443 6.433181,-7.58518"
       id="path5" /><path
       style="fill:#000000;fill-opacity:0;stroke:#000000;stroke-width:5.69218;stroke-dasharray:none;stroke-opacity:1"
       d="m 84.604883,126.38238 c -0.989714,6.16297 -0.989714,6.16297 -0.989714,6.16297 0,0 1.484584,3.31851 8.412625,0.94813 6.928042,-2.37036 4.453739,-5.21481 4.453739,-5.21481"
       id="path6" /><path
       style="fill:#000000;fill-opacity:0;stroke:#000000;stroke-width:5.69218;stroke-dasharray:none;stroke-opacity:1"
       d="m 104.89416,78.974994 c 48.49629,-8.533326 38.10423,-9.0074 48.49629,-8.533326 10.39208,0.474076 24.74301,1.8963 24.74301,1.8963"
       id="path7" /><path
       style="fill:#000000;fill-opacity:0;stroke:#000000;stroke-width:5.70116;stroke-dasharray:none;stroke-opacity:1"
       d="m 177.63859,77.552779 c -14.84581,-3.318519 -8.90748,-3.318519 -14.84581,-3.318519 -5.93832,0 -25.23785,1.422226 -28.70186,6.16296 -3.46405,4.740734 -14.35096,15.644443 -18.80469,22.75554 -4.45376,7.11112 0.49484,12.8 3.95886,12.8 3.46403,0 2.4743,1.8963 9.8972,-8.05928 7.4229,-9.955527 18.8047,-24.17774 23.75331,-24.651819 4.94859,-0.474068 18.8047,-1.422215 18.8047,-1.422215 l 6.92802,5.214802"
       id="path8" /><path
       style="fill:#000000;fill-opacity:0;stroke:#000000;stroke-width:5.70118;stroke-dasharray:none;stroke-opacity:1"
       d="m 42.046919,173.31568 c -1.979444,6.63703 25.732727,27.4963 25.732727,27.4963 l 3.958884,5.68886 -38.599094,4.74077 c 0,0 2.969161,7.58518 1.979442,15.17034 -0.989724,7.58519 3.958879,9.48148 3.958879,9.48148 l 42.557969,-1.89629 c 0,0 6.928053,5.68888 13.85609,7.58518 6.928044,1.89629 1.979435,-2.84444 4.948604,-19.9111 2.96916,-17.06665 2.96916,-17.06665 2.96916,-17.06665 l 5.93832,-12.32591 -17.814976,-8.53334 -23.753278,22.75552 c 0,0 -33.650492,0 -39.588814,-15.17034 -5.938318,-15.17038 17.814966,-8.53332 17.814966,-8.53332"
       id="path9" /><path
       style="fill:#000000;fill-opacity:0;stroke:#000000;stroke-width:5.70118;stroke-dasharray:none;stroke-opacity:1"
       d="m 92.433791,194.03906 c 0,0 -4.199031,5.69875 -2.099516,7.03966 2.099516,1.34086 3.149261,3.01695 6.82342,1.50848 3.674145,-1.50848 4.024075,-3.51982 4.024075,-5.02833 0,-1.50849 -2.099525,-5.53114 -3.849114,-5.1959 -1.749609,0.3352 -5.773661,1.34086 -5.773661,1.34086"
       id="path10" /><path
       style="fill:#000000;fill-opacity:0;stroke:#000000;stroke-width:5.70118;stroke-dasharray:none;stroke-opacity:1"
       d="m 173.26508,95.484137 c -14.6966,-3.687409 -13.64686,-2.346548 -14.6966,-3.687409 -1.04977,-1.340894 -13.64684,10.727042 -13.64684,10.727042 l -13.99677,32.51643 -6.64845,22.79502 c 0,0 0.34991,4.69307 -4.54896,3.35221 -4.89887,-1.34089 -5.59869,-9.05098 -5.59869,-9.05098 l 6.99837,-33.52207"
       id="path11" /><path
       style="fill:#000000;fill-opacity:0;stroke:#000000;stroke-width:5.70118;stroke-dasharray:none;stroke-opacity:1"
       d="m 176.76425,126.32444 c 5.24878,17.09627 4.89887,8.38052 5.24878,17.09627 0.34994,8.71574 -2.44942,30.5051 -2.44942,30.5051 v 0 l -9.0979,19.10758 c 0,0 -6.29852,7.03964 -8.04813,6.70442 -1.7496,-0.33523 -17.49594,-0.67043 -15.74635,-2.01133 1.74959,-1.34086 -14.69661,-8.04528 -12.94702,-10.39184 1.74959,-2.34654 -4.54893,-19.77802 -4.54893,-19.77802 l 3.84912,-19.44282 c 0,0 3.49918,-10.72704 9.79771,-18.43713 6.29854,-7.71009 19.59547,-8.71574 33.94214,-3.35223 z"
       id="path12" /><path
       style="fill:#000000;fill-opacity:0;stroke:#000000;stroke-width:5.70118;stroke-dasharray:none;stroke-opacity:1"
       d="m 158.56848,139.39806 -13.29694,28.49376 0.34993,17.43149 c 0,0 -0.69983,3.68743 7.3483,1.6761 8.04814,-2.01131 3.84909,-7.71006 3.84909,-7.71006 0,0 2.44944,3.01699 5.24881,2.01131 2.79933,-1.00566 10.14763,-10.0566 10.14763,-10.0566 0,0 4.54895,-16.09062 1.7496,-19.77805 -2.79935,-3.68742 -5.24878,-3.68742 -5.24878,-3.68742 l 1.04975,-7.37488 -4.89887,-3.68741 z"
       id="path13" /><path
       style="fill:#000000;fill-opacity:0;stroke:#000000;stroke-width:5.70118;stroke-dasharray:none;stroke-opacity:1"
       d="m 137.57333,194.37428 c 0,0 -6.99837,5.36353 -9.79773,15.42017 -2.79935,10.0566 1.7496,18.43713 1.7496,18.43713 l 23.79448,4.35785 22.0449,-2.68175 c 0,0 8.04813,-1.6761 8.39804,-8.38053 0.34994,-6.7044 -10.14763,-29.16418 -10.14763,-29.16418"
       id="path14" /><path
       style="fill:#000000;fill-opacity:0;stroke:#000000;stroke-width:5.70118;stroke-dasharray:none;stroke-opacity:1"
       d="m 146.67123,202.41958 c -3.14928,7.03964 2.44942,10.39183 2.44942,10.39183 0,0 5.24878,3.35223 11.89726,-0.33521 6.64847,-3.68744 4.89885,-9.72139 4.89885,-9.72139"
       id="path15" /><path
       style="fill:#000000;fill-opacity:0;stroke:#000000;stroke-width:5.70118;stroke-dasharray:none;stroke-opacity:1"
       d="m 88.23476,163.53397 c 1.049746,-1.6761 1.87467,-3.50198 3.149273,-5.02833 0.08462,-0.10135 2.661193,-1.94512 3.49918,-2.34654 0.338765,-0.16224 0.664316,0.0161 1.399688,-0.33521 0.948256,-0.45423 -0.486469,1.47169 1.399667,-0.33521 0.164963,-0.15811 -0.129385,-0.48451 0,-0.67046 0.436658,-0.62746 0.861051,-0.16314 1.399677,-0.33522 0.558613,-0.17834 1.199325,-0.82995 1.749595,-1.00566 0.4199,-0.13397 0.97978,0.13421 1.39968,0 1.36583,-0.43616 2.73397,-0.33522 4.19901,-0.33522 0.23521,0 0.84327,0.0988 1.04978,0 0.55505,-0.26587 1.3232,-1.04231 2.0995,-0.67043 0.76631,0.36703 -0.11269,1.34086 0.69984,1.34086"
       id="path16" /><path
       style="fill:#000000;fill-opacity:0;stroke:#000000;stroke-width:5.70118;stroke-dasharray:none;stroke-opacity:1"
       d="m 93.133625,167.22138 c 0.816475,-1.22913 1.232796,-2.81327 2.449422,-3.68741 1.71552,-1.2326 3.92463,-1.6679 5.948623,-2.34654 0.86758,-0.29091 9.70435,-0.15191 10.49758,0 2.12654,0.40743 1.22877,0.95107 2.44943,1.34086 0.33197,0.10596 0.73679,-0.14983 1.04975,0 1.29453,0.62009 1.56899,3.017 2.79937,3.017"
       id="path17" /><path
       style="fill:#000000;fill-opacity:0;stroke:#000000;stroke-width:5.70118;stroke-dasharray:none;stroke-opacity:1"
       d="m 99.782079,172.24971 c 2.046051,-0.43834 5.043361,-1.55771 7.348311,-1.00565 0.16002,0.0383 0.19676,0.27651 0.34992,0.3352 0.78451,0.30063 2.6551,0.67045 3.49918,0.67045 2.1008,0 5.19604,-0.52812 6.99839,0.33522 0.82264,0.39405 3.14926,0.84671 3.14926,1.34088"
       id="path18" /><path
       style="fill:#000000;fill-opacity:0;stroke:#000000;stroke-width:5.70118;stroke-dasharray:none;stroke-opacity:1"
       d="m 101.18177,178.95411 c 3.99297,0.18109 8.56905,-0.4209 12.24715,1.34089 0.79855,0.38251 0.96398,0.7548 1.7496,1.00566 0.11058,0.0354 0.23341,0 0.34991,0 0.23339,0 0.47854,-0.0705 0.69985,0 0.31295,0.1 0.38684,0.5705 0.69983,0.67045 0.22142,0.0707 0.47854,-0.0707 0.69985,0 0.84379,0.26946 1.6812,1.25556 2.44943,1.6761 0.67935,0.3719 1.44848,0.58988 2.0995,1.00567 0.41175,0.26296 0.62011,0.77046 1.04977,1.00566 1.26112,0.69037 2.79935,0.50368 2.79935,2.01134"
       id="path19" /><path
       style="fill:#000000;fill-opacity:0;stroke:#000000;stroke-width:5.70118;stroke-dasharray:none;stroke-opacity:1"
       d="m 112.72909,197.39128 c 1.51631,0 3.06627,-0.30438 4.54893,0 2.24655,0.46116 4.67394,1.1254 6.29855,2.68175 0.0825,0.0791 -0.10433,0.28525 0,0.33523 0.2087,0.1 0.4912,-0.1 0.69985,0 0.8945,0.42847 2.79933,2.17231 2.79933,3.01699"
       id="path20" /><path
       style="fill:#000000;fill-opacity:0;stroke:#000000;stroke-width:5.70118;stroke-dasharray:none;stroke-opacity:1"
       d="m 103.98111,208.78876 c 1.70752,0.48139 3.52891,0.29023 5.24879,0.67046 0.50826,0.11241 0.90481,0.51239 1.39967,0.67044 0.22131,0.0707 0.50574,-0.12386 0.69984,0 1.19972,0.76623 -0.61652,0.68642 1.04977,1.00565 0.34312,0.0657 0.71028,-0.0813 1.04974,0 0.005,0.001 3.90219,1.82175 4.19904,2.01134 0.0971,0.0621 -0.0647,0.24224 0,0.33522 0.55771,0.80145 0.81045,0.42385 1.04975,1.34088 0.11519,0.44083 -0.26936,1.62426 0,2.01133 0.18302,0.26298 0.61982,0.36384 0.69984,0.67043 0.0632,0.24239 -0.28665,0.42805 -0.34991,0.67044 -0.0849,0.32521 0,0.67045 0,1.00567 0,1.23315 0.34991,2.41518 0.34991,3.68743"
       id="path21" /><path
       style="fill:#000000;fill-opacity:0;stroke:#000000;stroke-width:5.70118;stroke-dasharray:none;stroke-opacity:1"
       d="m 101.8816,224.20893 c 1.04976,0.33522 2.34349,0.27914 3.14927,1.00565 2.8779,2.59487 4.54894,7.627 4.54894,11.39752"
       id="path22" /><path
       style="fill:#000000;fill-opacity:0;stroke:#000000;stroke-width:5.70118;stroke-dasharray:none;stroke-opacity:1"
       d="m 101.8816,238.62342 c 3.93523,0.32954 7.80493,-0.14569 11.54732,-1.34088 1.39967,-0.44694 -0.0707,-0.32166 1.7496,-0.67044 3.72487,-0.71368 6.26563,0.0184 9.79773,-2.01133 0.51948,-0.2986 1.77456,-1.05352 2.0995,-1.6761 0.052,-0.1 -0.07,-0.24581 0,-0.33524 1.24272,-1.58732 2.09953,-1.72362 2.09953,-3.68741"
       id="path23" /><path
       style="fill:#000000;fill-opacity:0;stroke:#000000;stroke-width:5.70118;stroke-dasharray:none;stroke-opacity:1"
       d="m 154.01952,105.54076 c -2.56606,1.34089 -5.35983,2.34253 -7.69821,4.02265 -1.03269,0.74199 -0.87062,7.21661 -0.34993,8.38052 0.33133,0.7406 0.98238,1.31173 1.39968,2.01132 0.44073,0.73888 0.55702,1.63848 1.04976,2.34654 0.24026,0.34523 3.89603,0.45136 4.19902,0.33524 0.24215,-0.0928 0.1329,-0.53185 0.34993,-0.67045 1.62843,-1.04001 3.84173,-1.50496 5.59871,-2.34655 0.58319,-0.33524 1.16637,-0.67043 1.74959,-1.00565 0.11657,0 0.24559,0.0501 0.34991,0 0.29508,-0.14132 0.40477,-0.52911 0.69983,-0.67045 0.56813,-0.27211 1.54602,-0.016 2.09951,-0.33523 0.42437,-0.24388 0.66335,-0.70948 1.04977,-1.00566 0.16792,-0.12867 1.68575,-0.94448 1.74959,-1.00564 0.0825,-0.0791 -0.0825,-0.25621 0,-0.33524 1.07406,-1.02891 0.29095,0.1958 1.3997,-0.33522 2.27854,-1.09143 -0.69754,-0.33597 1.39965,-1.00565 1.25544,-0.40091 4.66369,0 6.29855,0 0.34993,0 0.80235,-0.23704 1.04975,0 0.16503,0.15811 -0.20869,0.57048 0,0.67045 0.34141,0.16361 1.86223,0 2.44943,0 1.31331,0 1.04977,-0.37451 1.04977,-1.67613 0,-0.78218 0.22429,-1.59444 0,-2.34654 -0.5159,-1.72976 -1.21783,-3.65178 -2.44942,-5.02831 -0.53676,-0.5999 -1.25475,-1.04401 -1.7496,-1.6761 -0.22141,-0.28267 -0.16023,-0.70266 -0.34993,-1.00565 -0.0192,-0.0288 -1.6729,-1.93787 -1.74959,-2.01134 -0.93359,-0.894363 -2.37378,-0.53566 -3.49919,-0.67044 -2.04222,-0.244568 -4.03468,-0.729693 -5.94861,-1.34087 -1.98378,-0.633492 -9.22812,2.21274 -10.84751,4.02265 -0.62977,0.70385 -1.39968,1.9989 -1.39968,3.01697"
       id="path24" /><path
       style="fill:#000000;fill-opacity:0;stroke:#000000;stroke-width:5.70118;stroke-dasharray:none;stroke-opacity:1"
       d="m 35.047077,86.097952 c 1.541257,3.322187 1.720954,4.214108 4.548944,7.374877 0.24004,0.268264 0.733475,0.153492 1.049758,0.335196 0.282894,0.162708 0.435914,0.480823 0.699836,0.670458 0.598385,0.429933 2.73703,1.340882 3.499193,1.340882"
       id="path25" /><path
       style="fill:#000000;fill-opacity:0;stroke:#000000;stroke-width:5.70118;stroke-dasharray:none;stroke-opacity:1"
       d="m 40.995695,80.734429 c 6.945838,6.654088 4.909971,3.87099 7.348303,7.374852"
       id="path26" /><path
       style="fill:#000000;fill-opacity:0;stroke:#000000;stroke-width:5.70118;stroke-dasharray:none;stroke-opacity:1"
       d="m 47.994075,75.706107 c 3.454296,1.315921 9.447815,4.665675 9.447815,9.050979"
       id="path27" /><path
       style="fill:#000000;fill-opacity:0;stroke:#000000;stroke-width:5.70118;stroke-dasharray:none;stroke-opacity:1"
       d="m 30.148207,83.080971 c -1.970901,-5.664358 -1.749589,-3.261542 -1.749589,-7.039638 0,-1.1052 0.860607,-3.841453 1.749589,-4.693094 0.46656,-0.446959 0.335768,0.71111 0.699844,-0.335217 0.07376,-0.212016 -0.139969,-0.491661 0,-0.670441 0.891007,-1.138114 2.979036,-0.810875 4.199026,-1.005664 1.70861,-0.272805 3.280489,-1.030805 4.898865,-1.340883 0.700896,-0.134294 1.719638,0 2.449433,0 2.83261,0 5.53378,-0.124391 6.648461,2.011324 0.539949,1.034538 1.399673,1.811923 1.399673,3.016984"
       id="path28" /><path
       style="fill:#000000;fill-opacity:0;stroke:#000000;stroke-width:5.70118;stroke-dasharray:none;stroke-opacity:1"
       d="m 88.584671,175.26671 c 0.699835,1.00565 1.059868,2.33224 2.099515,3.01697 1.166399,0.22359 2.332799,0.44696 3.499194,0.67043 0,-0.1117 -0.104333,-0.28522 0,-0.33521 0.312986,-0.14983 0.802321,0.23704 1.049765,0 0.164943,-0.1581 -0.104345,-0.47056 0,-0.67044 0.07371,-0.14134 0.297754,-0.18523 0.349902,-0.33522 0.15934,-0.4579 0.248723,-2.54047 0,-3.01698 -0.279925,-0.53636 -1.119732,-0.80454 -1.399667,-1.3409 -0.05217,-0.1 0.0825,-0.2562 0,-0.33521 -0.252412,-0.24181 -4.364542,-0.5119 -4.548951,-0.33522 -0.08249,0.0791 0.08249,0.25619 0,0.33522 -0.43766,0.41927 -1.399669,0.10242 -1.399669,1.00566"
       id="path29" /><path
       style="fill:#000000;fill-opacity:0;stroke:#000000;stroke-width:5.70118;stroke-dasharray:none;stroke-opacity:1"
       d="m 76.68744,182.30634 c -1.9193,6.11872 1.455344,1.05899 2.099503,1.67611 0.08249,0.0791 -0.08249,0.25619 0,0.33519 0.164965,0.15812 0.471095,-0.0439 0.699834,0 0.501647,0.0961 2.17104,0.60196 2.449438,0.33524 0.376969,-0.36112 0.04181,-0.41525 0.349924,-1.00567 0.05217,-0.1 0.267441,0.0791 0.349911,0 0.184422,-0.17672 0.233282,-0.44696 0.349923,-0.67045 0.260814,-0.4997 0,-1.11738 0,-1.6761 0,-1.77075 -0.458752,-2.08952 -1.749591,-3.01698 -0.343709,-0.24695 -3.403723,-1.9505 -3.849107,-0.67044 -0.461823,1.32727 -0.498789,3.34483 -0.699835,4.6931 z"
       id="path30" /><path
       style="fill:#000000;fill-opacity:0;stroke:#000000;stroke-width:5.70118;stroke-dasharray:none;stroke-opacity:1"
       d="m 58.141727,176.60757 c -0.466562,0.11171 -1.037749,0.0319 -1.399674,0.33524 -1.476977,1.23806 -1.775832,2.63148 -1.049757,4.02264 0.104322,0.19993 -0.208646,0.57051 0,0.67044 0.208645,0.1 0.505732,-0.12409 0.699836,0 1.278584,0.81658 -0.375188,0.49072 0.699837,1.00566 1.541243,0.73826 3.723169,0.36538 5.248788,0 0.04507,-0.0118 1.295129,0.10018 1.399673,0 0.184417,-0.17671 0.193436,-0.47057 0.34992,-0.67044 0.197946,-0.25282 0.5523,-0.38777 0.699836,-0.67045 0.301682,-0.57802 0.698544,-4.02328 0,-4.35785 -1.002009,-0.47997 -1.857787,-0.0345 -2.799353,-0.33524 -0.156495,-0.0499 -0.202384,-0.26455 -0.349913,-0.33521 -0.795299,-0.38094 -2.873619,0.21532 -3.499193,0.33521 z"
       id="path31" /><path
       style="fill:#000000;fill-opacity:0;stroke:#000000;stroke-width:5.70118;stroke-dasharray:none;stroke-opacity:1"
       d="m 65.839946,187.33464 c 0.960536,-0.59058 2.829349,0.48846 3.849107,0 1.561128,-0.74777 1.678874,-3.15248 1.049758,-4.35788 -0.05217,-0.1 0.08247,-0.2562 0,-0.33521 -0.402085,-0.38519 -0.61884,-0.33521 -1.049758,-0.33521 -2.344655,0 -2.367102,-0.15787 -3.499191,2.0113 -0.09116,0.17466 -0.34572,2.9969 -0.349916,3.017 z"
       id="path32" /><path
       style="fill:#000000;fill-opacity:0;stroke:#000000;stroke-width:5.70118;stroke-dasharray:none;stroke-opacity:1"
       d="m 152.26994,146.77294 c -1.28304,-0.33524 -2.54958,-1.27633 -3.84912,-1.00568 -0.76177,0.15856 -4.14183,2.36182 -5.24878,3.68743 -0.16288,0.19511 -0.13289,0.53186 -0.34993,0.67045 -0.19406,0.12386 -0.4998,-0.11487 -0.69983,0 -0.42433,0.24391 -0.69983,0.67045 -1.04976,1.00565 -0.18446,0.17672 -0.5832,0.1117 -0.69984,0.33522 -0.35438,0.67901 -0.21949,1.93219 -0.34991,2.68178 -0.13962,0.80242 -0.53332,1.54885 -0.69985,2.34655 -0.15016,0.71941 0.25648,3.77694 0,4.02263 -0.18446,0.17672 -0.5832,0.11171 -0.69984,0.33522 -0.2916,0.55872 0.1943,1.11741 0,1.6761 -0.052,0.14982 -0.3099,0.18201 -0.34991,0.33524 -0.16623,0.6373 0,1.66846 0,2.34654 0,2.12307 0,4.24613 0,6.36919"
       id="path33" /></g></svg>
